<?xml version="1.0" standalone="no"?>
<!DOCTYPE svg PUBLIC "-//W3C//DTD SVG 1.1//EN" "http://www.w3.org/Graphics/SVG/1.1/DTD/svg11.dtd" >
<svg xmlns="http://www.w3.org/2000/svg">
<metadata>
Created by FontForge 20120731 at Fri May 12 11:32:16 2017
 By admin
</metadata>
<defs>
<font id="iconfont" horiz-adv-x="1024" >
  <font-face 
    font-family="iconfont"
    font-weight="500"
    font-stretch="normal"
    units-per-em="1024"
    panose-1="2 0 6 3 0 0 0 0 0 0"
    ascent="896"
    descent="-128"
    x-height="792"
    bbox="0 -191 1366 896"
    underline-thickness="0"
    underline-position="0"
    unicode-range="U+0078-E8D2"
  />
<missing-glyph 
 />
    <glyph glyph-name=".notdef" 
 />
    <glyph glyph-name=".notdef" 
 />
    <glyph glyph-name=".null" horiz-adv-x="0" 
 />
    <glyph glyph-name="nonmarkingreturn" horiz-adv-x="341" 
 />
    <glyph glyph-name="x" unicode="x" horiz-adv-x="1001" 
d="M281 543q-27 -1 -53 -1h-83q-18 0 -36.5 -6t-32.5 -18.5t-23 -32t-9 -45.5v-76h912v41q0 16 -0.5 30t-0.5 18q0 13 -5 29t-17 29.5t-31.5 22.5t-49.5 9h-133v-97h-438v97zM955 310v-52q0 -23 0.5 -52t0.5 -58t-10.5 -47.5t-26 -30t-33 -16t-31.5 -4.5q-14 -1 -29.5 -0.5
t-29.5 0.5h-32l-45 128h-439l-44 -128h-29h-34q-20 0 -45 1q-25 0 -41 9.5t-25.5 23t-13.5 29.5t-4 30v167h911zM163 247q-12 0 -21 -8.5t-9 -21.5t9 -21.5t21 -8.5q13 0 22 8.5t9 21.5t-9 21.5t-22 8.5zM316 123q-8 -26 -14 -48q-5 -19 -10.5 -37t-7.5 -25t-3 -15t1 -14.5
t9.5 -10.5t21.5 -4h37h67h81h80h64h36q23 0 34 12t2 38q-5 13 -9.5 30.5t-9.5 34.5q-5 19 -11 39h-368zM336 498v228q0 11 2.5 23t10 21.5t20.5 15.5t34 6h188q31 0 51.5 -14.5t20.5 -52.5v-227h-327z" />
    <glyph glyph-name="QQ" unicode="&#xe607;" 
d="M971 143l-2 18l-3 17l-3 9l-2 9l-3 9l-4 10l-3 10l-4 9l-8 16l-6 14l-7 13l-5 11l-7 11l-5 9l-10 15l-12 19l-3 5l-1 2v1l2 7l3 6l2 11l2 6v6v5v5v6l-1 4l-2 10l-2 9l-3 8l-3 8l-4 7l-3 7l-3 6l-6 9l-2 3v2l-3 18l-1 11l-2 14l-3 15l-4 17l-3 9l-2 8l-3 9l-3 10l-3 9
l-4 10l-8 19l-5 9l-6 10l-5 9l-6 10l-7 10l-7 8l-8 10l-8 8l-8 8l-9 9l-5 3l-5 4l-11 7l-12 8l-12 7l-13 7l-13 6l-13 6l-14 4l-15 4l-13 4l-15 3l-13 4l-15 1l-14 2l-15 2h-15h-14h-14l-14 -1l-14 -2l-14 -2l-13 -2l-14 -3l-13 -3l-13 -4l-12 -4l-12 -4l-12 -6l-12 -5
l-10 -6l-10 -6l-10 -7l-10 -8l-8 -7l-12 -12l-10 -10l-10 -11l-9 -11l-9 -11l-7 -10l-7 -11l-4 -5l-3 -6l-7 -10l-5 -10l-5 -10l-4 -10l-4 -9l-3 -9l-3 -9l-4 -8l-4 -16l-3 -15l-1 -12l-2 -11v-8v-7v-6l-3 -3l-3 -4l-2 -4l-2 -4l-2 -9l-3 -9v-7l-1 -6v-6l-6 -8l-4 -9l-3 -8
l-2 -7l-2 -7l-2 -6v-6v-6v-5l1 -4l2 -7l1 -6l-3 -3l-9 -6l-12 -11l-7 -7l-7 -6l-5 -5l-4 -5l-9 -9l-8 -10l-7 -8l-8 -11l-7 -11l-7 -12l-7 -11l-5 -11l-5 -11l-4 -10l-4 -11l-3 -11l-3 -11l-3 -10l-2 -10l-1 -9l-2 -10l-1 -18v-17v-7l1 -7l2 -13l1 -6l2 -5l2 -6l1 -3l3 -7
l2 -2l2 -3h1h1h1h7l7 2l7 3l6 4l6 4l5 5l6 5l5 6l5 6l4 6l4 4l2 6l5 8l2 4l1 2v3l1 2h1l2 1h1v-1h1h1l3 -12l2 -10l4 -10l4 -9l4 -9l5 -8l4 -9l4 -7l5 -7l3 -6l10 -12l9 -11l8 -8l8 -7l7 -6l11 -10l4 -2l2 -2v-1l-1 -1h-1h-2l-8 -1l-7 -1l-6 -1l-7 -1l-5 -2l-6 -2l-5 -2
l-4 -3l-5 -1l-3 -3l-3 -2l-4 -3l-4 -5l-2 -3l-2 -2l-3 -6l-2 -5l-1 -5l-1 -4v-6v-3l-1 -4v-4l-1 -4v-3l1 -4l1 -4l2 -7l2 -3l2 -3l2 -3l3 -3l3 -3l2 -3l7 -5l8 -4l8 -5l9 -3l9 -4l11 -2l10 -4l11 -2l12 -2l11 -2l12 -1l24 -3h24h23h10h10h11l9 1l9 1l8 1l13 2l9 3l9 2l17 7
l8 3l7 3l12 7l10 6l8 5l6 5l9 -1l7 -1l14 -1h6h6l4 -1l4 -1l7 -3l8 -2l14 -5l15 -5l14 -4l14 -3l15 -4l15 -2l15 -2l14 -2l14 -1l15 -1h13h14h13l13 1l13 1l12 2l11 3l11 2l11 3l5 1l5 2l9 3l8 4l8 4l8 4l6 5l3 3l3 4l4 4l4 6l1 3l1 3l2 3l1 3v4l1 3l-1 5l-1 4l-2 5l-1 4
l-3 5l-3 5l-3 3l-4 4l-9 7l-10 8l-10 5l-10 6l-23 12l-6 3l-2 2l-1 1l12 11l5 6l4 5l8 12l7 11l6 11l6 10l8 20l7 16l4 12l2 4l2 3l2 2h1h1l6 -12l5 -12l4 -7l4 -5l4 -7l5 -7l4 -5l3 -2l2 -3l2 -1l3 -2l4 -2l3 -1h2h2l2 1l4 1l3 2l3 2l3 3l3 4l2 3l3 5l2 3l2 6l2 4l3 11
l2 12l2 14l1 8v6v7v9z" />
    <glyph glyph-name="linianpingtai" unicode="&#xe744;" 
d="M276.5 651q-47.5 0 -81 -33.5t-33.5 -81t33.5 -81.5t81 -34t81 34t33.5 81.5t-33.5 81t-81 33.5zM259.5 219.5q33.5 33.5 33.5 81t-33.5 81t-81 33.5t-81 -33.5t-33.5 -81t33.5 -81t81 -33.5t81 33.5zM275.5 179q-47.5 0 -81 -33.5t-33.5 -81t33.5 -81t81 -33.5
t81.5 33.5t34 81t-34 81t-81.5 33.5zM430.5 47.5q-33.5 -33.5 -33.5 -81t33.5 -81t81 -33.5t81 33.5t33.5 81t-33.5 81t-81 33.5t-81 -33.5zM747.5 179q-47.5 0 -81 -34t-33.5 -81.5t33.5 -81t81 -33.5t81 33.5t33.5 81t-33.5 81.5t-81 34zM926.5 380.5q-33.5 33.5 -81 33.5
t-81 -33.5t-33.5 -81t33.5 -81t81 -33.5t81 33.5t33.5 81t-33.5 81zM748.5 421q47.5 0 81 33.5t33.5 81t-33.5 81t-81 33.5t-81.5 -33.5t-34 -81t34 -81t81.5 -33.5zM431.5 714.5q-33.5 -33.5 -33.5 -81t33.5 -81t81 -33.5t81 33.5t33.5 81t-33.5 81t-81 33.5t-81 -33.5z
" />
    <glyph glyph-name="weibo" unicode="&#xe619;" 
d="M730 320l15 35q29 92 -54 107q-67 12 -205 -33q34 29 33 73t-30 65q-30 19 -69 18.5t-84 -22.5t-90 -54.5t-86 -76.5t-72.5 -89.5t-50.5 -93t-19 -86.5q0 -44 24.5 -89t71 -84t126.5 -64t180 -25q101 0 183 21t132.5 53t85 71.5t48 75t13.5 65.5q0 37 -15.5 64t-38 39.5
t-44.5 20t-38 8.5zM432 -49.5q-123 -11.5 -215.5 39.5t-100 134.5t73.5 150.5t204 78.5t215.5 -39.5t100.5 -134.5t-73.5 -150.5t-204.5 -78.5zM374 273q-67 -11 -107 -59.5t-30.5 -105.5t63.5 -89.5t120.5 -21t107 60t30.5 105.5t-63.5 89t-120.5 21zM358.5 56
q-21.5 -6 -40.5 4t-24.5 29.5t6 37.5t33 24t40.5 -3.5t24.5 -29.5t-6 -38t-33 -24zM433 141q-11 0 -19 7.5t-8 18.5t8 19t19 8t19 -8t8 -19t-8 -18.5t-19 -7.5zM951 604q-44 57 -113 80.5t-153 11.5q-14 -2 -23 -13.5t-7 -25.5t13.5 -22.5t26.5 -6.5q134 19 201 -66
q30 -39 38 -89t-10 -93q-5 -13 0.5 -26t18.5 -19q7 -2 13 -2q24 0 32 21q25 60 14.5 129t-51.5 121zM718 570q-14 -2 -22.5 -13.5t-6.5 -25.5t13.5 -22.5t25.5 -6.5q49 7 72 -22q10 -13 12.5 -30t-3.5 -32q-5 -13 0.5 -26t18.5 -19q7 -2 13 -2q24 0 33 21q12 32 7 67.5
t-27 62.5q-47 61 -136 48z" />
    <glyph glyph-name="yusuanfenxi" unicode="&#xe650;" 
d="M926 -85h-829q-13 0 -22.5 -9t-9.5 -22.5t9.5 -22.5t22.5 -9h829q13 0 22.5 9t9.5 22.5t-9.5 22.5t-22.5 9zM687 147q-8 0 -13.5 -5.5t-5.5 -13.5v-144q0 -8 5.5 -13.5t13.5 -5.5h125q8 0 13.5 5.5t5.5 13.5v144q0 8 -5.5 13.5t-13.5 5.5h-125zM447 415q-8 0 -13.5 -6
t-5.5 -14v-411q0 -8 5.5 -13.5t13.5 -5.5h125q8 0 13.5 5.5t5.5 13.5v411q0 8 -5.5 14t-13.5 6h-125zM206 -35h125q8 0 13.5 5.5t5.5 13.5v288q0 8 -5.5 13.5t-13.5 5.5h-125q-8 0 -13.5 -5.5t-5.5 -13.5v-288q0 -8 5.5 -13.5t13.5 -5.5zM287 513l197 159l259 -299l-36 -30
q-9 -7 -6.5 -18.5t14.5 -14.5l126 -31q2 -1 5 -1q7 0 12 4q7 7 7 16l-9 130q-1 12 -11.5 16.5t-19.5 -3.5l-43 -35l-276 318q-7 7 -17 8t-18 -5l-216 -175q-9 -7 -10 -17.5t5.5 -18.5t17 -9t19.5 6z" />
    <glyph glyph-name="weixin" unicode="&#xe629;" 
d="M693 465q16 0 35 -2q-23 109 -127.5 181.5t-238.5 72.5q-98 0 -181 -40.5t-132 -112t-49 -155.5q0 -144 145 -245l-36 -109l126 64q6 -1 25.5 -5t27 -5.5t22.5 -4t27 -3.5t25 -1q16 0 34 2q-11 38 -11 76q0 119 89.5 203t218.5 84zM498 563q21 0 33.5 -12.5t12.5 -33
t-12.5 -33t-33.5 -12.5t-37.5 13t-16.5 32.5t16.5 32.5t37.5 13zM245 472q-22 0 -38.5 13t-16.5 32.5t16.5 32.5t38.5 13q20 0 32.5 -12.5t12.5 -33t-12.5 -33t-32.5 -12.5zM1024 182q0 71 -43 132t-113.5 96t-151.5 35q-129 0 -218.5 -77t-89.5 -186t89.5 -186t218.5 -77
q36 0 109 18l99 -54l-27 91q127 95 127 208zM616 228q-13 0 -24.5 11t-11.5 24.5t11.5 25t24.5 11.5q20 0 33 -11t13 -25.5t-13 -25t-33 -10.5zM816 228q-14 0 -25 11t-11 24.5t11 25t25 11.5q19 0 32 -11t13 -25.5t-13 -25t-32 -10.5z" />
    <glyph glyph-name="jiaoyubeijing" unicode="&#xe6b7;" 
d="M894 637v-725h-669q-39 0 -67 24.5t-28 59t28 59t67 24.5h606v669h-638q-52 0 -89.5 -32.5t-37.5 -78.5v-669q0 -46 37.5 -79t89.5 -33h765v781h-64v0zM257 23h574v-55h-574v55v0zM257 23z" />
    <glyph glyph-name="dizhi" unicode="&#xe6d7;" 
d="M512 747q-97 0 -179.5 -48t-130.5 -130.5t-48 -179.5q0 -71 39 -166.5t94 -175.5t118 -136.5t107 -56.5t107 56.5t118 136.5t94 175.5t39 166.5q0 97 -48 179.5t-130.5 130.5t-179.5 48v0zM512 209q-74 0 -127 53t-53 127t53 127t127 53t127 -53t53 -127t-53 -127
t-127 -53v0zM512 209z" />
    <glyph glyph-name="time" unicode="&#xe610;" 
d="M514 -191q-97 0 -186 38t-153 102t-102 153t-38 186t38 186t102 153t153 102t186 38q19 0 33 -13.5t14 -33t-14 -33.5t-33 -14q-105 0 -193.5 -51.5t-140 -140.5t-51.5 -193t51.5 -193t140 -140.5t193.5 -51.5q92 0 172.5 40t135.5 114q12 15 31.5 18t35 -9t18 -31
t-8.5 -35q-69 -91 -169.5 -141t-214.5 -50v0zM928 129q-7 0 -12 1q-19 5 -29 22t-5 36q13 49 13 100q0 118 -65.5 215.5t-174.5 141.5q-18 8 -25.5 26t-0.5 36t25 25.5t36 0.5q137 -56 218.5 -177t81.5 -268q0 -64 -17 -124q-4 -16 -17 -25.5t-28 -9.5v0zM694 188h-183
q-20 0 -33.5 14t-13.5 33v257q0 20 13.5 33.5t33 13.5t33.5 -13.5t14 -33.5v-210h136q20 0 34 -14t14 -33.5t-14 -33t-34 -13.5v0zM694 188z" />
    <glyph glyph-name="price" unicode="&#xe623;" 
d="M509 728q2 0 5 2q6 5 17 15q12 12 24.5 17t33.5 -3q10 -3 17 -9q9 -9 12 -11q6 -5 12.5 -9t17 -4t17.5 3.5t14 6t14 3.5t16 -2q11 -4 14.5 -12t2 -16.5t-7 -16.5t-14.5 -14q-20 -12 -30 -25q-11 -13 -21 -28q-6 -7 -12 -17q-6 -9 -11 -19q-6 -11 -14 -22h-216
q-7 13 -15 25q-6 10 -13.5 20.5t-12.5 18.5q-10 16 -23 28t-26 21q-14 10 -19 26t10 28q7 5 16.5 4t19.5 -4l21 -7q9 -3 18 -1q15 3 22 11t25 20q13 8 30 5.5t25 -11.5q4 -5 9 -8q5 -5 10 -7q6 -5 12 -8v0zM627 519q12 -16 31 -36q15 -17 39 -40q22 -23 53 -48
q25 -22 51.5 -51.5t46.5 -69.5t28 -91q8 -52 -3 -116q-9 -52 -37 -98.5t-73.5 -81t-109 -55t-143.5 -20.5q-83 0 -146.5 23.5t-108 61t-70.5 84t-35 92.5q-9 51 -2.5 98.5t24.5 88.5t44.5 75.5t58.5 61.5q27 25 49 46t36 39q18 20 32 38zM516 199l-50 50q-11 10 -15 16
q-8 7 -21.5 11.5t-23.5 -5.5q-8 -12 -4 -23t9 -17l16 -15q8 -8 25 -27l35 -35l-1 -22h-71q-10 0 -16.5 -7.5t-6.5 -16t6 -14.5t17 -6h71v-37h-71q-10 0 -16.5 -5.5t-6.5 -15.5q-1 -8 5.5 -13.5t17.5 -5.5h71v-21q1 -15 9 -20.5t21 -5.5q13 -1 20 7q8 9 8 19v21h73
q11 0 17.5 4.5t5.5 14.5q0 22 -29 22h-67l1 36l68 1q15 -1 21 6t6 16q0 8 -6.5 15t-21.5 7h-68v20q18 16 33 32q12 12 25 26q12 13 18 18q24 21 11 37q-7 9 -18.5 9t-21.5 -8q-7 -6 -18 -16q-13 -11 -25 -22q-14 -13 -32 -30v0zM516 199z" />
    <glyph glyph-name="liucheng" unicode="&#xe60b;" 
d="M959 40q-3 1 -14 9.5t-19 7.5q-25 -4 -31.5 7t-5.5 36q1 22 0.5 94.5t0.5 94.5q0 25 -11.5 35.5t-36.5 10.5h-133t-133 -1q-20 -1 -27 6.5t-4 26.5v1.5v1.5q0 10 -2 33t-1 38t8 25q7 9 21.5 10.5t37 -1.5t31.5 -2q42 1 43 40v98v98q0 7 -2.5 13.5t-8.5 15t-8 10.5h-308
q-20 -22 -20 -57q1 -31 1 -84v-84q0 -29 10 -39t40 -11h3h4q9 -1 29 1t32.5 1t14.5 -8q3 -11 4.5 -23t2 -26t0 -23.5t-1.5 -27t-1 -24.5t-4 -9t-13 -0.5l-9 1.5h-263q-34 0 -44 -10t-10 -43q-1 -149 0 -200q0 -14 -4.5 -20t-18.5 -4q-5 0 -6 1t-5.5 -0.5t-5.5 -1.5t-5.5 -2
t-5 -2.5t-4.5 -3t-5 -3t-5 -3t-5 -3.5v-168l11 -11l10 -10h204q18 23 17 54v52.5v52.5q-1 28 -10.5 37.5t-38.5 10.5q-41 2 -47.5 9t-6.5 47v129q-1 13 4 17.5t17 4.5q114 -1 235 0q11 0 15.5 -4.5t3.5 -15.5q-1 -85 0 -165q1 -12 -3 -17t-17 -5q-25 -2 -35.5 -2.5t-23 -5
t-15.5 -7.5t-6.5 -16t-3.5 -23.5v-36.5v-59q-2 -34 20 -57h238q22 22 20 57q-1 9 -0.5 48.5t0.5 49.5q-1 31 -11 41t-41 11q-39 1 -45.5 8t-6.5 46q0 115 -1 130q0 13 5 18t19 5q101 -1 231 0q12 0 17 -4.5t4 -16.5q-1 -86 0 -165q1 -13 -4.5 -17t-17.5 -4q-61 -3 -71 -14
t-10 -72v-63q-2 -35 17 -58h204l21 21v168z" />
    <glyph glyph-name="liuyan" unicode="&#xe649;" 
d="M800 406l-2 -26q-16 -111 -95.5 -183.5t-184.5 -72.5h-46l-8 -9q24 -45 65.5 -71t90.5 -26h46l90 -94q9 -9 21 -9q6 0 12 2q19 7 19 28v77q63 13 104.5 66.5t41.5 124.5q0 73 -44 127.5t-110 65.5zM755 386q3 22 3 40q0 107 -70.5 183t-169.5 76h-208q-99 0 -169.5 -76
t-70.5 -183q0 -95 56.5 -167t142.5 -88v-109q0 -24 22 -33q6 -2 13 -2q15 0 25 10l124 130h65q89 0 156 62t81 157zM244 506h337q7 0 12 -5t5 -12.5t-5 -13t-12 -5.5h-337q-7 0 -12 5.5t-5 13t5 12.5t12 5zM446 339h-202q-7 0 -12 5t-5 12.5t5 13t12 5.5h202q7 0 12 -5.5
t5 -13t-5 -12.5t-12 -5z" />
    <glyph glyph-name="hulianwangchanpin" unicode="&#xe64e;" 
d="M512 747q92 0 173.5 -35.5t142 -95.5t95.5 -141.5t35 -173.5q0 -94 -35 -175t-95.5 -142t-141.5 -96q-82 -35 -174 -35t-173.5 35.5t-142 95.5t-95.5 141.5t-35 175.5q0 92 35 173.5t95.5 141.5t142 95.5t173.5 35.5zM634 177q3 4 -3 9q-5 6 -13 13t-13.5 15t-3.5 14
q4 15 2.5 22.5t-8.5 9.5q-8 2 -22 2q-17 -1 -34 -1q-11 0 -17 -1q-8 -1 -13 -1t-12 -1q-6 0 -15 1q-14 1 -21 4q-9 5 -13 8q-7 4 -16 6.5t-28 3.5q-25 1 -36 2.5t-16 3.5q-5 1 -8 2h-11q-9 -1 -26 -9q-19 -7 -36 -17q-18 -10 -31 -21q-14 -10 -14 -17q0 -18 3 -30
q2 -12 6 -18q5 -6 9 -10q5 -3 10 -8t13 -7t17.5 -2.5t17.5 -2.5t13 -6q10 -12 20 -10q11 2 18 6q9 5 14 4t6 -18q0 -8 3 -12t7 -6l12 -5q6 -4 14 -11t5 -14q-2 -7 -6.5 -13t-9 -13t0.5 -14q6 -11 14 -15q7 -5 14.5 -8.5t13.5 -7.5q5 -4 7 -14q0 -3 7 -11t13 -16
q7 -11 10 -15q2 -3 1.5 -4t-3.5 0q11 -2 24 -2t17 4l2 2v1l3 1q1 1 4.5 2.5t9.5 6.5q11 8 21.5 20t18.5 27t13 30t7 28t6 18q7 10 8 11q3 4 5 11q3 7 0 24q-3 22 5 32t14 17zM728 27q13 16 13.5 26.5t-21.5 16.5q-25 6 -34 6q-10 1 -18.5 -9.5t-12.5 -21.5t2 -30q2 -8 4 -14
q2 -5 5 -6.5t9 -1t16 3.5q11 3 22 13q10 10 15 17zM754 305q6 7 22 10q15 3 32 9q16 5 28.5 14.5t13.5 26.5t0 31.5t-5.5 28.5t-13 30t-20.5 36q-13 21 -24 35.5t-22 23.5q-10 10 -21.5 18t-25.5 17q-15 9 -30 19t-32 13t-37 -4.5t-46 -33.5l-16 -17q-11 -9 -22 -17.5
t-22 -15.5q-10 -6 -19 -6q-7 0 -24 -2q-16 -2 -32.5 -9.5t-28.5 -21t-10 -36.5q1 -26 9 -33.5t21 -8.5q11 -1 30 -2q18 -1 38 -12q25 -6 44 -12q19 -5 37.5 -12t30.5 -15q14 -8 11.5 -22t-10 -28t-12 -27.5t5.5 -21.5q15 -10 21 -13q7 -3 15 -1q6 1 21 4q12 3 40 3
q-7 0 -2 6t14 14q11 9 21.5 17.5t19.5 14.5v0z" />
    <glyph glyph-name="jinlingyingcaiwangtubiao47" unicode="&#xe6ce;" 
d="M904 506h-409l-123 198h-258q-26 0 -44 -21t-18 -50v-695q0 -29 20.5 -49.5t49.5 -20.5h782q29 0 49.5 20.5t20.5 49.5v497q0 29 -20.5 50t-49.5 21zM90 498v135q0 13 7 22.5t17 9.5h236l100 -159h-328q-16 0 -32 -8zM257 66q-12 0 -20 8t-8 19.5t8 20t20 8.5t20 -8.5
t8 -20t-8 -19.5t-20 -8zM257 248q-12 0 -20 8t-8 20t8 20t20 8t20 -8t8 -20t-8 -20t-20 -8zM797 75h-408q-8 0 -13.5 5.5t-5.5 13.5t5.5 13.5t13.5 5.5h408q8 0 13.5 -5.5t5.5 -13.5t-5.5 -13.5t-13.5 -5.5zM797 257h-408q-8 0 -13.5 5.5t-5.5 13.5t5.5 13.5t13.5 5.5h408
q8 0 13.5 -5.5t5.5 -13.5t-5.5 -13.5t-13.5 -5.5z" />
    <glyph glyph-name="dianhua" unicode="&#xe605;" 
d="M845 395q-143 238 -332 238q-96 0 -180.5 -62.5t-150.5 -175.5l-153 -264q-25 -56 -21.5 -105.5t27 -86.5t69 -58.5t105.5 -21.5h608q60 0 106 21.5t69.5 58.5t27 86.5t-22.5 105.5v1q-66 120 -152 263v0zM513 128q-86 0 -147 61t-61 147t61 147t147 61t147 -61t61 -147
t-61 -147t-147 -61v0zM52 404q20 -11 39 -7t33.5 14.5t19.5 22.5q40 104 130.5 171.5t205.5 73.5v0q32 3 64 0q115 -6 206 -73.5t130 -171.5q5 -12 19.5 -22.5t33.5 -14.5t39 7q24 15 39 48.5t12 80t-30 85.5q-34 48 -153.5 85t-291.5 38v0q-35 1 -71 0v0q-172 -1 -292 -38
t-154 -85q-27 -39 -30 -85.5t12 -80t39 -48.5v0zM52 404z" />
    <glyph glyph-name="shendu" unicode="&#xe609;" 
d="M536 -10h-76v99h228q8 0 14 5.5t6 13.5v386q0 8 -6 13.5t-14 5.5h-565q-9 0 -15 -5.5t-6 -13.5v-386q0 -8 6 -13.5t15 -5.5h224v-99h-78q-9 0 -16 -7t-7 -16v-6h317v6q0 9 -7 16t-17 7h-3v0zM160 147v308h490v-308h-490zM891 619h-289q-10 0 -18 -6t-8 -15v-69h115
q15 0 25.5 -10t10.5 -25v-386q0 -14 -10.5 -24t-25.5 -10h-115v-43v0q17 0 31 -11.5t14 -27.5v-31h270q11 0 19 6t8 15v616q0 9 -8 15t-19 6v0zM827 136q-15 0 -25 10t-10 24t10 23.5t24.5 9.5t24.5 -9.5t10 -23.5t-10 -24t-24 -10v0zM827 249q-14 0 -24.5 10t-10.5 23.5
t10.5 23.5t24.5 10t24.5 -10t10.5 -23.5t-10.5 -23.5t-24.5 -10v0zM878 382q0 -7 -4.5 -11.5t-10.5 -4.5h-92v146h92q6 -1 10.5 -5.5t4.5 -10.5v-114zM575 429q-9 0 -15 -6t-6 -15t7 -15l-69 -151h-4h-1l-52 90q12 5 12 18q0 8 -6 14t-14.5 6t-15 -6t-6.5 -14q0 -6 4 -11
l-50 -70q-4 1 -9 1q-9 0 -15 -6l-20 7q-1 8 -7 14t-14 6t-14.5 -6t-6.5 -15q0 -6 4 -11l-34 -37q-4 1 -7 1q-9 0 -15 -6t-6 -14.5t6 -14t14.5 -5.5t14.5 5.5t6 14.5q0 7 -4 12l34 37q4 -2 8 -2q12 0 18 10l18 -6v-4q0 -8 6 -14t14.5 -6t14.5 6t6 14q0 6 -4 11l50 70
q3 -1 6 -1l53 -91q-9 -6 -9 -17q0 -8 6 -14t14.5 -6t14.5 6t6 14t-6 14l69 152h4q8 0 14 6t6 14.5t-6 14.5t-14 6v0zM546 430z" />
    <glyph glyph-name="hunheyun" unicode="&#xe67f;" 
d="M921 85q0 23 -2 75q49 28 49 87q0 55 -27.5 99t-65 61.5t-67.5 6.5q14 49 3.5 89t-38 69.5t-67 46t-84.5 17.5l-7 4l4 51q67 -2 122 -26.5t89 -75.5t31 -119q21 -3 47.5 -19t53.5 -42.5t44.5 -69.5t15.5 -92q-2 -59 -29 -101t-72 -61zM716 435q27 -5 54 -23.5t51.5 -49
t38 -79t9.5 -104.5q-5 -72 -56.5 -113t-127.5 -41h-485q-80 0 -135 57t-62 142q-6 80 36.5 143t116.5 68q14 56 37 94.5t57 60.5t71.5 33.5t89.5 16.5q43 5 91 -4t93.5 -31.5t79 -66.5t41.5 -103zM411 589q-82 -2 -143 -58.5t-61 -146.5q-68 -4 -109.5 -46.5t-43.5 -107.5
q-2 -71 46.5 -115.5t122.5 -44.5h437q67 0 113 38t47 101q1 38 -15 73.5t-40 58.5t-51 35t-49 8q8 50 -7.5 89t-44.5 60.5t-68 35t-72 17.5t-62 3zM461 128h-100v103h-103v101h103v103h100v-103h103v-101h-103v-103z" />
    <glyph glyph-name="anquanbaozhang" unicode="&#xe701;" 
d="M506 -113l-13 3q-83 48 -149 107.5t-107.5 118t-70.5 123.5t-42.5 121t-18.5 114t-4 99t6.5 80t8.5 52.5t5 20.5l4 16h16q70 0 130.5 14t101 36.5t64 40t40.5 36.5q16 14 33 14q19 0 31 -14q17 -18 40.5 -36t64 -40t101 -36.5t130.5 -14.5h16l5 -15q3 -8 6.5 -21.5
t10 -50.5t9 -75t-1 -92.5t-15 -107t-37.5 -115t-65 -118.5q-73 -98 -130 -145q-70 -62 -157 -112zM159 699q-6 -26 -10.5 -57t-5.5 -88t6 -112.5t31 -126t62.5 -133.5t106 -129.5t157.5 -119.5q77 46 141 102q56 47 122 137q44 64 70.5 136t34.5 128.5t6 115.5t-7 90t-12 57
q-73 2 -136 18t-105.5 40.5t-67.5 43.5t-43 39q-18 -20 -43.5 -39.5t-67.5 -43.5t-104.5 -40t-134.5 -18zM493 770q-15 -16 -35.5 -31.5t-55.5 -34t-86 -30.5t-110 -13q-3 -9 -6 -24.5t-7.5 -64t-1.5 -96.5t20 -115t49.5 -126t94.5 -122.5t147 -112.5v0q-1 0 -3.5 194
t-4 382t-1.5 194z" />
    <glyph glyph-name="fuwu" unicode="&#xe634;" 
d="M275 813q-83 0 -142 -59t-59 -142t59 -142t142 -59h201v201q0 83 -59 142t-142 59v0zM414 473h-139q-57 0 -98 41t-41 98.5t41 98t98.5 40.5t98 -40.5t40.5 -98.5v-139v0zM940 612q0 83 -59 142t-142 59t-142 -59t-59 -142v-201h201q83 0 142 59t59 142v0zM600 612
q0 58 40.5 98.5t98 40.5t98.5 -40.5t41 -98t-41 -98.5t-98 -41h-139v139v0zM74 149q0 -84 59 -142.5t142 -58.5t142 58.5t59 142.5v200h-201q-83 0 -142 -58.5t-59 -141.5v0zM414 149q0 -58 -40.5 -99t-98 -41t-98.5 41t-41 98.5t41 98.5t98 41h139v-139v0zM739 349h-201
v-200q0 -84 59 -142.5t142 -58.5t142 58.5t59 142t-59 142t-142 58.5v0zM739 9q-58 0 -98.5 41t-40.5 99v139h139q57 0 98 -41t41 -98.5t-41 -98.5t-98 -41v0zM739 9z" />
    <glyph glyph-name="shijian" unicode="&#xe61b;" 
d="M547 827h139q14 0 24 10t10 24t-10 24t-24 10h-348q-14 0 -24 -10t-10 -24t10 -24t24 -10h139v-68l0.5 -0.5t0.5 -1.5q-115 -8 -211 -68.5t-151 -159t-55 -213.5q0 -90 35.5 -172.5t96 -141.5t144 -94t175.5 -35t175.5 35t144 94t96 141.5t35.5 172.5q0 115 -55 213.5
t-151 159t-211 68.5zM512 214q-43 0 -73.5 29.5t-30.5 72.5q0 33 19.5 59t49.5 37v177q0 14 10.5 24t24.5 10t24.5 -10t10.5 -24v-177q30 -11 49.5 -37t19.5 -59q0 -43 -30.5 -72.5t-73.5 -29.5v0z" />
    <glyph glyph-name="iconset0112" unicode="&#xe60c;" 
d="M358 132q-18 9 -29 -8q-10 -18 8 -30q18 -9 30 8q6 7 3.5 15.5t-12.5 14.5zM653 636q18 -9 30 8q9 18 -9 30q-18 9 -30 -8q-6 -20 9 -30zM192 405q-10 0 -15.5 -5.5t-5.5 -15.5t5.5 -15.5t15.5 -5.5t15.5 5.5t5.5 15.5t-5.5 15.5t-15.5 5.5zM341 674q-9 -6 -11.5 -14.5
t3.5 -15.5q3 -6 11.5 -8.5t18.5 0.5q6 3 8.5 11.5t-0.5 18.5q-15 15 -30 8zM226 247q-17 -11 -8 -29q3 -7 11.5 -9.5t17.5 0.5q7 3 9.5 11.5t-0.5 18.5q-16 16 -30 8zM247 559q-9 3 -17.5 0.5t-11.5 -9.5q-9 -18 8 -29q18 -10 30 8q7 14 -9 30zM653 132q-7 -3 -9.5 -11.5
t0.5 -18.5q4 -6 12 -8.5t18 0.5q7 3 9.5 11.5t-0.5 18.5q-16 15 -30 8zM768 559q-7 -3 -9.5 -11.5t0.5 -18.5q4 -6 12.5 -9t17.5 1q7 3 9.5 11.5t-0.5 17.5q-16 16 -30 9zM819.5 405q-9.5 0 -15.5 -5.5t-6 -15.5t6 -15.5t15.5 -5.5t15.5 5.5t6 15.5t-6 15.5t-15.5 5.5z
M508 841q-95 0 -180 -36.5t-146.5 -97.5t-98 -145.5t-36.5 -177.5t36 -177.5t97.5 -145.5t146 -97.5t177 -36.5t178 36.5t147.5 97.5t98.5 145.5t36.5 177.5t-36 177.5t-97 145.5t-146 97.5t-177 36.5zM507.5 -34q-113.5 0 -209.5 56t-152 152.5t-56 209.5t56 209.5
t152 152.5t209.5 56t210 -56t152.5 -152.5t56 -209.5t-56 -209.5t-152.5 -152.5t-210 -56zM695 405h-106q-13 47 -60 60v230q0 10 -6 16t-15.5 6t-15.5 -6t-6 -16v-230q-26 -6 -45 -29.5t-19 -51.5q0 -35 25.5 -60t60.5 -25q29 0 51.5 17.5t29.5 46.5h106q10 0 16 5.5
t6 15.5q-7 21 -22 21zM508 341q-17 0 -30 12.5t-13 30.5q0 17 12 30t31 13t30.5 -12t11.5 -31q-3 -17 -15 -30t-27 -13zM508 94q-10 0 -16 -6t-6 -15.5t6 -15.5t15.5 -6t15.5 6t6 16q0 6 -7.5 13.5t-13.5 7.5zM785 247q-18 10 -30 -8q-9 -18 9 -30q18 -9 30 9q6 6 3.5 14.5
t-12.5 14.5z" />
    <glyph glyph-name="caozuojiandan" unicode="&#xe637;" 
d="M504 409v219h-135v-471l-17 11v224h-134v-302l67 -152h521v471h-302zM773 90v-118h-471l-51 118v269h68v-202l50 -34h34v471h67v-471h34v253h67v-253h34v253h67v-253h33v253h68v-286zM352 480v19q-38 22 -61 61t-23 85q0 69 49.5 118.5t119 49.5t119 -49.5t49.5 -118.5
q0 -46 -23 -85t-62 -61v-19q46 23 73.5 67.5t27.5 97.5q0 76 -54 130.5t-130.5 54.5t-131 -54.5t-54.5 -130.5q0 -53 27.5 -97.5t73.5 -67.5zM436 746q42 0 71.5 -29.5t29.5 -71.5q0 -31 -17 -56v-49q51 40 51 105q0 56 -39.5 95t-95 39t-95 -39t-39.5 -95q0 -65 50 -105v49
q-17 25 -17 56q0 42 29.5 71.5t71.5 29.5z" />
    <glyph glyph-name="xinzi" unicode="&#xe6a5;" 
d="M512 810q-116 0 -214.5 -57t-156 -155.5t-57.5 -214.5t57.5 -214.5t156 -156t214.5 -57.5t214.5 57.5t156 156t57.5 214.5t-57.5 214.5t-156 155.5t-214.5 57v0v0zM512 17q-99 0 -183.5 49t-133.5 133t-49 183.5t49 184t133.5 133.5t183.5 49t183.5 -49t133.5 -133.5
t49 -184t-49 -183.5t-133.5 -133t-183.5 -49v0v0zM536 409l-7 3q-17 7 -42 18q-2 1 -3 1q-25 12 -32 24q-7 11 -5.5 25t9.5 22q22 19 53 19q18 0 35 -6q15 -5 35 -23l4 -4l1 -1l2 -2q7 -12 21 -12q22 0 36 23q9 17 0 30q-11 18 -34 33t-46 21q-18 5 -21 5v42q0 10 -10 10
h-41q-4 0 -7 -3t-3 -7v-43q-48 -8 -78 -37q-25 -24 -31.5 -56.5t8 -62t41.5 -42.5q14 -8 108 -53l16 -7q21 -11 29 -24q6 -12 3.5 -25.5t-11.5 -21.5q-15 -12 -44 -12q-26 0 -53 9q-19 7 -35 21l-4 4h-1v1v0l-2 2q-7 12 -21 12q-22 0 -35 -23q-9 -17 -1 -30q29 -47 111 -59
v-41q0 -5 3 -7.5t7 -2.5h41q10 0 10 10v38q49 4 79 30q25 22 34 53.5t-2 61.5q-5 16 -17 29.5t-32 24.5t-33 17t-35 16v0zM536 409z" />
    <glyph glyph-name="renshiguanli" unicode="&#xe65e;" 
d="M921 82q0 -18 17 -26q-1 -11 -4 -19q-4 -14 -12 -27v0q-4 -9 -10 -17q-18 7 -31.5 -6.5t-6.5 -30.5q-9 -7 -20 -12q-11 -6 -25 -10v0q-8 -2 -19 -4q-8 17 -26.5 17t-26.5 -17q-11 2 -20 4q-14 4 -28 12v0q-8 4 -16 10q7 17 -6.5 30.5t-31.5 6.5q-7 9 -12 20q-6 11 -10 24
v0q-3 8 -5 19q18 8 18 26.5t-18 26.5q2 10 5 19q4 13 12 27v0q4 8 10 16q18 -6 31.5 7t6.5 31q9 6 20 11q11 6 24 10v0q9 3 20 5q8 -17 26.5 -17t26.5 17q11 -2 19 -5v0q16 -5 28 -11q8 -4 17 -10q-7 -18 6.5 -31t31.5 -7q6 -8 10 -16q7 -12 12 -28v1q3 -9 4 -19
q-17 -8 -17 -27v0v0zM877 136q-17 -1 -28.5 10.5t-10.5 27.5q-13 7 -27 11q-11 -11 -27.5 -11t-27.5 11q-14 -4 -27 -11q0 -16 -11.5 -27t-27.5 -11q-7 -13 -11 -27q12 -11 12 -27t-12 -27q4 -14 11 -26q16 0 27.5 -11t11.5 -28q13 -7 27 -11q11 12 27.5 12t27.5 -12
q14 4 27 11q-1 16 10.5 27.5t28.5 11.5q7 12 11 26q-12 11 -12 27t12 27q-4 14 -11 27v0v0zM783 14q-28 0 -48 20t-20 48t20 48t48.5 20t48.5 -20t20 -48t-20 -48t-49 -20v0v0zM783 122q-16 0 -28 -11.5t-12 -28t12 -28.5t28.5 -12t28.5 12t12 28.5t-12 28t-29 11.5v0v0z
M783 122zM669 -23l-97 -1l-53 219l53 110q-34 -27 -79 -27q-19 0 -38.5 6.5t-29.5 13.5l-11 7l53 -110l-52 -219l-226 1q0 1 -5 0t-12.5 3t-15 10t-13 22t-5.5 38q0 35 18 67t53 60.5t70 51.5t85.5 55t82.5 56q-58 33 -100 111.5t-42 142.5q0 50 22.5 96t66.5 77.5
t99.5 31.5t99.5 -31.5t66 -77.5t22 -96q0 -66 -35.5 -140t-95.5 -114q31 -23 89 -61t75 -50q21 16 45 21q-44 34 -133 87q50 52 80.5 129.5t30.5 140.5q0 60 -29 115.5t-85.5 92.5t-128 37t-128.5 -37t-85.5 -92.5t-28.5 -115.5q0 -63 30 -140.5t81 -129.5q-38 -22 -60 -36
t-54.5 -36.5t-52 -40t-42.5 -42t-35 -48t-20.5 -52.5t-8.5 -60q0 -28 8 -48t17.5 -29t22.5 -14t17.5 -5.5t7.5 -0.5h550q-27 20 -44 52v0zM669 -23z" />
    <glyph glyph-name="xingzhuang8" unicode="&#xe664;" 
d="M823 257q43 -149 -57 -254q-39 -41 -97.5 -57t-104.5 -10t-63 24q-15 15 -15.5 27.5t6.5 17.5l7 5l30 59q-2 -1 -6.5 -2t-17 -5t-24 -7t-26 -6t-26 -5t-21 -1.5t-13.5 3.5l-98 80l-98 80q-15 11 -4 135l-53 -42q0 -1 -1 -3t-5 -6.5t-9 -6.5t-14 -0.5t-20 8.5
q-15 10 -27.5 39.5t-18.5 66.5t2 82t33 80q83 119 239 106q47 60 105 104t111.5 68.5t111 38.5t100.5 17.5t84.5 2t59.5 -4t27 -4.5q1 -1 1 -3q7 -17 12 -33.5t15 -60t14 -84t1 -99.5t-17 -113t-45 -117.5t-78 -119.5zM749 677l-15.5 8t-34 13t-42.5 6.5t-51.5 -11
t-50.5 -38.5q-20 -31 -26 -61.5t-1 -51t16 -39.5t18 -26.5t12.5 -11.5t14 -9.5t29.5 -12.5t42.5 -8t50 11t55.5 38q21 28 27.5 58t1.5 51.5t-15.5 41.5t-18.5 29.5t-12 12.5zM157 155q7 8 19.5 9.5t20.5 -5.5t9.5 -19t-5.5 -20l-86 -105q-6 -8 -18.5 -9.5t-21 5.5t-9.5 19
t6 21zM234 86q7 9 19.5 10t20.5 -5.5t9.5 -19t-5.5 -20.5l-127 -155q-7 -8 -19 -9.5t-20.5 5.5t-9.5 19t5 20zM307 27q7 8 19 9.5t20.5 -5t9.5 -19t-5 -20.5l-62 -76q-7 -8 -19.5 -9t-20.5 5.5t-9.5 19t5.5 20.5z" />
    <glyph glyph-name="shipin" unicode="&#xe603;" 
d="M930 454q-21 7 -38 -5q-37 -25 -111 -74l-30 -20q-5 19 -10 29.5t-19 29.5v0q32 24 52.5 55t28 64t6 64.5t-11.5 59.5q-24 65 -81 103t-127 35q-67 -3 -120 -45q-56 -46 -73 -114q-48 93 -142 102q-59 5 -108 -21.5t-74 -77.5q-15 -29 -19.5 -62t7.5 -73t42 -73
q-51 -39 -50 -107v-146v-65q0 -59 36.5 -95.5t95.5 -36.5h218h219q57 0 93.5 34.5t39.5 90.5l29 -24q75 -63 110 -92q14 -12 32 -8q24 7 38.5 25t14.5 42q1 160 1 340q-1 22 -14 40t-35 25zM895 362v-283l-74 62q-44 36 -64 53q-4 3 -3 6v33v33q0 1 1 3l135 90zM599 726
l1 -13q53 -1 90.5 -38.5t37.5 -89.5q0 -53 -37.5 -90.5t-91.5 -37.5v0q-52 0 -89.5 37.5t-37.5 90.5t37.5 90.5t89.5 37.5v13v0zM135 326q0 49 49 49h219h219q49 0 49 -49v-215q0 -47 -48 -48h-90h-131h-65h-153q-49 1 -49 50v213zM234 656v13v0v-13q41 0 70.5 -29.5
t28.5 -70.5q0 -41 -29 -69.5t-70 -28.5q-42 0 -70.5 28.5t-28.5 70t29 70.5t70 29zM432 458h-46q14 21 21 43q10 -23 25 -43z" />
    <glyph glyph-name="moban1qiuzhiyixiang01" unicode="&#xe67b;" 
d="M420 -62q-11 0 -19 3q-14 6 -22.5 19t-8.5 28v173l271 332l-345 -297l-199 82q-32 13 -32 44q0 30 25 45v0q631 364 768 442q2 1 15.5 10l16.5 11q11 7 23 6t21 -10v0q23 -24 24 -54v-3l-124 -728v-1q-6 -25 -26 -34q-12 -6 -23 -7q-10 0 -19 4l-201 82l-106 -130l-1 -1
q-17 -16 -38 -16v0zM418 -22h2q4 0 9 4l123 152l230 -94h2v0q3 0 6 2q3 1 4 7l124 728q1 6 -6 13h-4q-3 -1 -5 -2l-792 -456q-5 -2 -5 -10q0 -4 6 -7h1l176 -72l499 431l29 -28l-406 -499v-159q0 -7 6 -9l1 -1v0v0z" />
    <glyph glyph-name="zhongduan" unicode="&#xe606;" 
d="M313 156h234l9 -118h-252zM230 91h74l-9 -62h270l-9 62h73l27 -119h-453zM777 272v0q0 -6 -4 -10.5t-11 -4.5h-665q-6 0 -10 4.5t-4 10.5v424q0 6 4 10.5t10 4.5h665q7 0 11 -4.5t4 -10.5v-424zM845 796h-830q-6 0 -10.5 -4.5t-4.5 -10.5v-610q0 -6 4.5 -10.5t10.5 -4.5
h182v0h382v0h266q6 0 10.5 4.5t4.5 10.5v610q0 6 -4.5 10.5t-10.5 4.5zM1002 493h-103q-3 0 -5 -2v0q-2 -2 -2 -5v-415q0 -3 2 -5v0q2 -2 5 -2h103q3 0 5 2v0q2 2 2 5v415q0 3 -2 5v0q-2 2 -5 2zM899 508h103q9 0 16 -7v0v0v0q6 -6 6 -15v-415q0 -9 -6 -15v0v0v0
q-7 -6 -16 -6h-103q-9 0 -16 6v0v0v0q-6 6 -6 15v415q0 9 6 15v0v0v0q7 7 16 7zM950.5 109q4.5 0 4.5 -4.5t-4.5 -4.5t-4.5 4.5t4.5 4.5zM950.5 117q5.5 0 9 -3.5t3.5 -9t-3.5 -9t-9 -3.5t-9.5 3.5t-4 9t4 9t9.5 3.5zM921 123h59v-38h-59v38zM982 447h-63v-13h63v13z
M914 431v34v2h3h67h3v-2v-34v-2h-3h-67h-3v2zM982 400h-63v-14h63v14zM914 384v33v3h3h67h3v-3v-33v-3h-3h-67h-3v3zM898 488h105v-416h-105v416z" />
    <glyph glyph-name="location" unicode="&#xe6c2;" 
d="M513 -94h-1q-26 0 -44 19q-89 92 -172 205q-166 223 -166 350q0 104 51 192t139 139t192 51t192 -51t139 -139t51 -192q0 -77 -58 -186q-57 -105 -168 -241l-1 -1l-109 -126q-18 -20 -45 -20v0zM512 805q-88 0 -163 -43.5t-118.5 -118.5t-43.5 -163q0 -108 155 -316
q81 -110 168 -200q1 -1 2 -1h1q1 0 2 1l109 125q107 132 161 232q52 97 52 159q0 88 -43.5 163t-118.5 118.5t-163 43.5zM512 302q-74 0 -126.5 52t-52.5 126t52.5 126.5t126.5 52.5t126.5 -52.5t52.5 -126.5t-52.5 -126t-126.5 -52zM512 602q-50 0 -85.5 -35.5t-35.5 -86
t35.5 -86t85.5 -35.5t85.5 35.5t35.5 86t-35.5 86t-85.5 35.5z" />
    <glyph glyph-name="dashiji" unicode="&#xe6f5;" 
d="M817 757h-511q-9 0 -15 -6t-6 -15v-634q0 -7 -5.5 -12.5t-13 -5.5t-12.5 5.5t-5 12.5v546h-17q-40 0 -45 -3q-1 -3 -1 -19v-594q0 -9 6 -15.5t15 -6.5h99v0h511q9 0 15 6.5t6 15.5v704q0 9 -6 15t-15 6zM524 90h-156q-8 0 -13 5t-5 12.5t5 13t13 5.5h156q7 0 12.5 -5.5
t5.5 -13t-5.5 -12.5t-12.5 -5zM524 183h-156q-8 0 -13 5t-5 12.5t5 13t13 5.5h156q7 0 12.5 -5.5t5.5 -13t-5.5 -12.5t-12.5 -5zM524 276h-156q-8 0 -13 5t-5 12.5t5 13t13 5.5h156q7 0 12.5 -5.5t5.5 -13t-5.5 -12.5t-12.5 -5zM524 369h-156q-8 0 -13 5.5t-5 13t5 12.5
t13 5h156q7 0 12.5 -5t5.5 -12.5t-5.5 -13t-12.5 -5.5zM524 462h-156q-8 0 -13 5.5t-5 13t5 12.5t13 5h156q7 0 12.5 -5t5.5 -12.5t-5.5 -13t-12.5 -5.5zM746 90h-156q-7 0 -12.5 5t-5.5 12.5t5.5 13t12.5 5.5h156q8 0 13 -5.5t5 -13t-5 -12.5t-13 -5zM746 183h-156
q-7 0 -12.5 5t-5.5 12.5t5.5 13t12.5 5.5h156q8 0 13 -5.5t5 -13t-5 -12.5t-13 -5zM746 276h-156q-7 0 -12.5 5t-5.5 12.5t5.5 13t12.5 5.5h156q8 0 13 -5.5t5 -13t-5 -12.5t-13 -5zM746 369h-156q-7 0 -12.5 5.5t-5.5 13t5.5 12.5t12.5 5h156q8 0 13 -5t5 -12.5t-5 -13
t-13 -5.5zM746 462h-156q-7 0 -12.5 5.5t-5.5 13t5.5 12.5t12.5 5h156q8 0 13 -5t5 -12.5t-5 -13t-13 -5.5zM764 580q0 -8 -5 -13t-13 -5h-376q-8 0 -13 5t-5 13v98q0 8 5 13t13 5h376q8 0 13 -5t5 -13v-98zM388 660h340v-62h-340v62z" />
    <glyph glyph-name="shipin1" unicode="&#xe617;" 
d="M840 540l138 80q19 11 32.5 3.5t13.5 -27.5v-401q0 -22 -13.5 -28.5t-32.5 5.5l-138 79q-23 14 -34.5 26.5t-11.5 29.5v179q0 18 11 29t35 25v0zM840 540zM620 691h-523q-40 0 -68.5 -28.5t-28.5 -68.5v-420q0 -40 28.5 -68.5t68.5 -28.5h523q40 0 68.5 28.5t28.5 68.5
v420q0 40 -28.5 68.5t-68.5 28.5zM305 456q-6 -27 -25 -46.5t-44 -25.5q-48 -10 -81.5 24.5t-23.5 80.5q5 27 24.5 46t44.5 23q48 12 81 -21t24 -81z" />
    <glyph glyph-name="dashiji1" unicode="&#xe645;" 
d="M669 20q-3 11 -12.5 18t-20.5 7h-74v126q-29 -5 -57.5 -5t-57.5 5v-126h-73q-12 0 -21.5 -7t-12.5 -18l-26 -94q-5 -17 5.5 -31t28.5 -14h314v0q14 0 24.5 10.5t10.5 24.5q0 7 -3 14l-25 90v0zM857 767q-14 4 -29 4q-6 0 -13 -1v93q0 14 -9.5 23.5t-23.5 9.5h-555
q-14 0 -23.5 -9.5t-9.5 -23.5v-93q-7 1 -13 1q-15 0 -29 -4q-57 -15 -83.5 -78t-7.5 -137q17 -64 61.5 -104.5t95.5 -40.5h10q3 -7 8 -16l1 -2q6 -12 13 -22q1 -2 2 -3q7 -11 15 -21v-1q17 -21 37 -39v-0.5v-0.5q9 -8 20 -17q1 0 1 -0.5v-0.5q44 -33 96 -49v0q13 -4 26 -7v0
q14 -3 28 -4h1q15 -2 28.5 -2t28.5 2h1q13 1 28 4v0v0q13 3 26 7h1q51 16 95 49l0.5 0.5l0.5 0.5q10 8 20 17v1q20 18 37 39v1q8 10 15 21q2 2 2 3q7 10 13 22q1 1 1 2q5 8 8 16h11q50 0 94.5 40.5t61.5 104.5q19 74 -7.5 137t-83.5 78v0zM115 566q-13 51 2 94.5t49 52.5
q7 2 15 2q6 0 13 -1v-155q0 -13 2 -28v-4q1 -12 3 -26l0.5 -1.5t0.5 -2.5q2 -14 5 -26l1 -3t1 -5q-29 5 -55 34t-37 69v0zM674 630l-92 -70l33 -109q3 -8 -3 -12q-3 -2 -6.5 -2t-5.5 2l-95 66l-96 -66q-6 -4 -12 0t-3 12l33 109l-92 70q-6 4 -3.5 11.5t9.5 7.5l116 2l38 109
q2 7 9.5 7t9.5 -7l38 -109l116 -2q8 0 10 -7.5t-4 -11.5v0zM894 566q-11 -40 -36.5 -69t-55.5 -34q0 2 1 5l1 3q3 13 5 26q1 1 1 4q2 14 3 26q0 1 1 4q1 15 1 28v155q7 1 13 1q8 0 15 -2q34 -9 49.5 -52.5t1.5 -94.5v0z" />
    <glyph glyph-name="2" unicode="&#xe711;" 
d="M504 282q-80 66 -142 143q-14 17 -22.5 30t-15.5 28t-5 28t12 23l-203 203q-12 -15 -20 -39t-7.5 -71t17 -101t66.5 -131t130 -159q84 -86 164.5 -140t137.5 -73t105.5 -20.5t74.5 8t38 21.5l-198 198q-10 -10 -22 -11.5t-29 7t-34.5 21t-46.5 35.5zM906 147v0l-155 154
q-9 9 -22 9t-22 -9l-56 -56l199 -198l9 9l18 18l20.5 20.5l8.5 8.5v0q9 10 9 22.5t-9 21.5zM402 605v0q10 10 9.5 22.5t-9.5 21.5v1l-159 158q-9 9 -22 9t-22 -9l-56 -56l203 -203l3 3l8 8l11 11l12 12l11 11l8 8z" />
    <glyph glyph-name="iconfontfolderparent-copy" unicode="&#xe618;" 
d="M724 365h-266q-16 0 -27.5 11.5t-11.5 28t11.5 28t27.5 11.5h266q16 0 27.5 -11.5t11.5 -28t-11.5 -28t-27.5 -11.5v0zM724 210h-266q-16 0 -27.5 11.5t-11.5 28t11.5 28t27.5 11.5h266q16 0 27.5 -11.5t11.5 -28t-11.5 -28t-27.5 -11.5v0zM904 82v496q0 17 -6 28.5
t-14 16.5t-16 7.5t-14 2.5l-5 -1h-25h-58.5h-79h-74h-57.5t-16 0q-8 0 -15 2.5t-10 5.5l-3 2q-13 23 -37 58q-11 17 -24 24.5t-21 7.5l-8 -1h-241q-19 0 -32.5 -7t-20 -15.5t-10 -19.5t-4 -15.5t-0.5 -6.5v0v-581q0 -21 5.5 -35t13 -19t16 -8t13.5 -1.5t6 0.5h687q16 0 27 6
t15.5 14.5t6.5 17.5t1 15v6v0v0zM855 112q0 -17 -12 -28.5t-29 -11.5h-612q-17 0 -28.5 11.5t-11.5 28.5v414q0 17 11.5 29t28.5 12h612q17 0 29 -12t12 -29v-414zM271 405q0 -18 12 -30t29.5 -12t30 12t12.5 29.5t-12.5 29.5t-30 12t-29.5 -12t-12 -29v0zM271 250
q0 -18 12 -30t29.5 -12t30 12t12.5 29.5t-12.5 29.5t-30 12t-29.5 -12t-12 -29v0z" />
    <glyph glyph-name="wenjianjia" unicode="&#xe7a0;" 
d="M861 -8q0 -23 -16.5 -39.5t-39.5 -16.5h-699l98 461q0 24 16.5 40t39.5 16h643q23 0 39.5 -16t16.5 -40l-98 -405v0v0zM218 495h629v55q0 23 -16.5 39.5t-39.5 16.5h-335v51q0 23 -16.5 39.5t-39.5 16.5h-280q-23 0 -39.5 -16.5t-16.5 -39.5v-665l98 447q0 23 16.5 39.5
t39.5 16.5v0v0zM218 495z" />
    <glyph glyph-name="lianrongheyuefff" unicode="&#xe69e;" 
d="M937 736q-24 30 -74 30v0h-60v0h-17h-76v0h-430q-30 0 -52 -22t-22 -53v-540h-142v-71v-3q2 -29 29 -52.5t60 -22.5h127h398h51q30 0 51.5 21.5t21.5 52.5v550h154l2 10l0.5 3.5t0.5 10t0.5 14t-1 17t-3.5 18.5t-6.5 19t-11.5 18zM280 34h-127q-23 0 -39.5 15t-16.5 30v2
v3v33h511q-13 -22 -15 -42q-2 -22 7 -41h-320v0zM769 691v-616q0 -17 -12 -29t-29 -12h-88q-11 12 -13.5 25.5t1.5 24t13 25.5q11 19 9 29l-3 12h-408v541q0 17 12 29t29 12l490 1zM930 651h-128v40v44h74q26 -1 40 -18q4 -5 7 -11t4.5 -10.5t2.5 -12t1 -10.5t-0.5 -12
t-0.5 -10zM609 326h-32v-99h-15v40h-33v-12h-37v15h-33v-46h-20v84h-33v-84h-14v-32h14v-29h33v28h20h13h20v31h37v-27h16h17h70v32h-23v23h44v33h-44v43v0zM341 579h344v-32h-344v32zM341 494h344v-33h-344v33zM341 417h344v-32h-344v32z" />
    <glyph glyph-name="xueyuanguanli" unicode="&#xe627;" horiz-adv-x="1027" 
d="M764 265q9 18 -9 29q-19 13 -72 35q77 35 123.5 107.5t46.5 160.5q0 125 -87 212t-211.5 87t-211.5 -87t-87 -212q0 -88 48.5 -162.5t126.5 -110.5q-139 -38 -221 -153.5t-82 -277.5q0 -9 6 -15t15.5 -6t15.5 6t6 15q0 183 105.5 294.5t278.5 111.5q60 0 98.5 -7.5
t80.5 -31.5q10 -6 18 -4t12 9zM299 597.5q0 105.5 75 180.5t180.5 75t181 -75t75.5 -180.5t-75.5 -181t-181 -75.5t-180.5 75.5t-75 181zM1002.5 85q-9.5 0 -15.5 -5.5t-6 -15.5v-107q0 -22 -10 -32t-32 -10h-171q-26 0 -34.5 8.5t-8.5 33.5v171q0 26 8.5 34.5t34.5 8.5h107
q9 0 15 5.5t6 15.5t-6 15.5t-15 5.5h-107q-45 0 -65 -20t-20 -65v-171q0 -44 20 -64.5t65 -20.5h171q44 0 64.5 20.5t20.5 64.5v107q0 10 -6 15.5t-15.5 5.5zM815 4q4 -4 17 -4t17 4l171 171q6 6 6 14.5t-6.5 15t-15 6.5t-14.5 -6l-171 -171q-6 -3 -7 -13.5t3 -16.5z
M201 341l12 13v0v4v5v8v0v0q0 4 -4 4v0l-4 5h-4v0q-48 18 -80.5 60t-35.5 110q0 65 41 117t109 58q9 0 15 6t6 16q0 21 -30 21q-88 -12 -135.5 -74t-47.5 -144q0 -65 29.5 -113.5t72.5 -73.5l-8 -5q-137 -110 -137 -337q0 -9 6 -15t15.5 -6t15.5 6t6 15q0 241 158 320z" />
    <glyph glyph-name="asmkticon0163" unicode="&#xe7d4;" 
d="M512 550q-8 0 -13.5 -5.5t-5.5 -13.5v-96q0 -8 5.5 -13.5t13.5 -5.5t13.5 5.5t5.5 13.5v96q0 8 -5.5 13.5t-13.5 5.5zM531 703v65q0 8 -5.5 13.5t-13.5 5.5t-13.5 -5.5t-5.5 -13.5v-65q-87 -7 -146 -71.5t-59 -151.5v-256q0 -93 65.5 -158.5t158.5 -65.5v0
q93 0 158.5 65.5t65.5 158.5v256q0 87 -59 151.5t-146 71.5zM698 224q0 -77 -54.5 -131.5t-131.5 -54.5t-131.5 54.5t-54.5 131.5v256q0 77 54.5 131.5t131.5 54.5t131.5 -54.5t54.5 -131.5v-256z" />
    <glyph glyph-name="shipin2" unicode="&#xe611;" 
d="M714 847h-555q-33 0 -56 -23.5t-23 -55.5v-735q0 -33 23 -56t56 -23h735q33 0 56 23t23 56v555zM928 569v-2h-176q-24 0 -40.5 16.5t-16.5 39.5v178zM894 -1h-735q-14 0 -24 10t-10 24v735q0 14 10 24t24 10h491v0v-179q0 -41 30 -71t72 -30h176v-489q0 -14 -10 -24
t-24 -10zM665 436l-189 110q-18 10 -36 10q-21 0 -36.5 -15.5t-15.5 -45.5v-219q0 -30 15.5 -45.5t36.5 -15.5q18 0 36 10l189 110q34 19 34 50.5t-34 50.5zM646 367l-189 -109q-10 -5 -17 -5q-14 0 -14 23v219q0 23 14 23q7 0 17 -5l189 -110q16 -8 16 -17.5t-16 -18.5z
M160 748h75v-74h-75v74zM160 597h75v-75h-75v75zM160 445h75v-74h-75v74zM160 294h75v-74h-75v74zM160 143h75v-75h-75v75zM802 445h74v-74h-74v74zM802 294h74v-74h-74v74zM802 143h74v-75h-74v75z" />
    <glyph glyph-name="gongxiang" unicode="&#xe61d;" 
d="M795 230q-40 0 -72.5 -21t-48.5 -56l-320 192q5 17 5 36q0 18 -5 35l320 192q16 -34 48.5 -55t72.5 -21q55 0 94.5 39t39.5 94.5t-39.5 95t-95 39.5t-94.5 -39.5t-39 -94.5v-6l-329 -198q-40 53 -107 53q-56 0 -95 -39.5t-39 -95t39 -94.5t95 -39q66 0 107 53l329 -198
v-6q0 -56 39 -95t94.5 -39t95 39t39.5 94.5t-39.5 95t-94.5 39.5v0zM795 230z" />
    <glyph glyph-name="anquan" unicode="&#xe608;" 
d="M525 -113q-50 0 -116 34.5t-127 93.5q-68 65 -105 135.5t-37 134.5v386h27q9 0 28.5 1.5t67 11.5t89.5 27q92 37 157 82l16 12l16 -12q58 -43 157 -82q41 -17 89 -27t67.5 -11.5t28.5 -1.5h26v-386q0 -64 -37 -134.5t-104 -135.5q-61 -59 -127 -93.5t-116 -34.5zM195 285
q0 -57 38 -121t91 -112t109 -79.5t92 -31.5t92 31.5t108.5 79.5t90.5 112t38 121v333l-11 2q-89 9 -166 40q-79 32 -145 74l-7 5l-7 -5q-66 -42 -146 -74q-77 -31 -166 -40l-11 -2v-333v0zM353 280l35 41l108 -92l205 236l42 -36l-241 -276zM525 -101q-48 0 -112.5 35.5
t-122 89t-97.5 125t-40 136.5v373h15q8 0 28 1.5t69 11.5t92 28q93 38 159 84l9 6l9 -6q64 -46 159 -84q43 -18 92 -28t69 -11.5t28 -1.5h14v-373q0 -65 -40 -136.5t-97 -125t-121.5 -89t-112.5 -35.5zM511 745q-65 -41 -143 -73q-76 -30 -163 -40l-23 -2v-345
q0 -60 39.5 -127t94 -116t112.5 -81.5t96.5 -32.5t97 32.5t113 81.5t93.5 116t39 127v345l-23 2q-86 10 -162 40q-78 32 -144 73l-13 9zM371 281l19 22l108 -91l205 235l22 -19l-224 -257z" />
    <glyph glyph-name="caozuojiandan1" unicode="&#xe706;" 
d="M795.5 112q11.5 0 20 8.5t8.5 20.5t-8.5 20t-20 8t-19.5 -8t-8 -20t8 -20.5t19.5 -8.5zM919 571h-247q-16 0 -28 -12.5t-12 -29.5v-423q0 -17 12 -29.5t28 -12.5h247q17 0 29 12.5t12 29.5v423q0 17 -12 29.5t-29 12.5zM929 106q0 -10 -10 -10h-247q-9 0 -9 10v75h266
v-75zM929 215h-266v314q0 10 9 10h247q10 0 10 -10v-314v0zM102 667h734v-83h40v120h-812v-543h294v-59h-109v-37h367v37h-34v59h34v37h-514v469z" />
    <glyph glyph-name="kehufuwu" unicode="&#xe684;" 
d="M717 225l-64 42l51 56q70 77 70 179q0 111 -79 190t-190.5 79t-190 -79t-78.5 -190q0 -102 69 -179l51 -56l-63 -42q-84 -54 -130.5 -140t-46.5 -184q0 -12 8 -20.5t20 -8.5t20.5 8.5t8.5 20.5q0 90 44.5 166.5t121 120.5t166.5 44t166 -44t120.5 -120.5t44.5 -166.5
q0 -12 8.5 -20.5t20.5 -8.5t20.5 8.5t8.5 20.5q0 98 -47 184t-130 140zM293 501.5q0 87.5 62 149.5t149.5 62t149.5 -62t62 -149.5t-62 -149.5t-149.5 -62t-149.5 62t-62 149.5zM881 619q-41 116 -144 189.5t-232.5 73.5t-232.5 -73.5t-144 -189.5q-29 -16 -47 -44.5
t-18 -62.5q0 -52 37 -88t89 -36v247h-10q43 92 131 149t195 57t195 -57t130 -149h-10v-247q52 0 89 36t37 88q0 34 -17.5 62.5t-47.5 44.5z" />
    <glyph glyph-name="zhengque" unicode="&#xe66e;" 
d="M193 359q7 -3 19.5 -9t48 -27.5t67.5 -46.5t69.5 -66.5t62.5 -86.5q38 71 94 144t109 126t99 88.5t69 40.5v244q-68 -45 -130.5 -109t-102.5 -122t-70.5 -111.5t-44 -83.5t-13.5 -32l-128 137l-149 -86v0v0zM193 359zM1011 453h-80q5 -34 5 -69q0 -115 -56.5 -213
t-154.5 -154.5t-213 -56.5t-213 56.5t-154.5 154.5t-56.5 213t56.5 213t154.5 154.5t213 56.5q83 0 160 -31v85q-77 26 -160 26q-102 0 -196 -40q-91 -38 -160 -108q-70 -69 -108 -160q-40 -94 -40 -196t40 -196q38 -91 107.5 -160.5t160.5 -107.5q94 -40 196 -40t196 40
q91 38 160.5 107.5t107.5 160.5q40 93 40 196q0 35 -5 69v0z" />
    <glyph glyph-name="app" unicode="&#xe67a;" 
d="M783 705q0 43 -30.5 73.5t-73.5 30.5h-338q-43 0 -73.5 -30.5t-30.5 -73.5v-642q0 -43 30.5 -73.5t73.5 -30.5h338q43 0 73.5 30.5t30.5 73.5v642v0zM275 645h470v-503h-470v503v0zM341 771h338q27 0 46.5 -19.5t19.5 -46.5v-22h-470v22q0 27 19.5 46.5t46.5 19.5v0z
M679 -3h-338q-27 0 -46.5 19.5t-19.5 46.5v42h470v-42q0 -27 -19.5 -46.5t-46.5 -19.5v0zM511 81q-12 0 -20 -8.5t-8 -20t8 -20t20 -8.5t20.5 8.5t8.5 20t-8.5 20t-20.5 8.5v0zM511 81z" />
    <glyph glyph-name="saas_plugin" unicode="&#xe646;" 
d="M832 64q-31 0 -64 12v-140q0 -26 -19 -45t-45 -19h-161q33 43 33 96q0 66 -47 113t-113 47t-113 -47t-47 -113q0 -53 33 -96h-225q-26 0 -45 19t-19 45v225q43 -33 96 -33q66 0 113 47t47 113t-47 113t-113 47q-53 0 -96 -33v161q0 26 19 45t45 19h140q-12 33 -12 64
q0 80 56 136t136 56t136 -56t56 -136q0 -31 -12 -64h140q26 0 45 -19t19 -45v-140q33 12 64 12q80 0 136 -56t56 -136t-56 -136t-136 -56z" />
    <glyph glyph-name="renyuanguanli" unicode="&#xe602;" 
d="M576 74q-7 7 -18 7h-184h-2q-87 0 -124 7q-17 4 -27.5 9t-14.5 10.5t-5 9t-1 8.5v13q0 64 39 117.5t101 74.5q24 8 47 10l24 2q5 1 10 3q12 7 11.5 21t-12.5 20l-26 13q-41 20 -64.5 58t-23.5 83q0 64 46.5 110t112.5 46v0h2q66 0 112.5 -46t46.5 -110q0 -45 -23.5 -83
t-65.5 -58l-25 -13q-12 -6 -12 -20q-1 -14 12 -21q4 -2 9 -3l24 -2q32 -3 47 -10q15 -5 29 -12q8 -4 17 -1.5t13.5 11t1.5 18t-11 13.5q-17 9 -35 15q-7 2 -15 4q38 29 59.5 71t21.5 91q0 83 -60.5 142.5t-145.5 59.5h-2q-85 0 -145.5 -59.5t-60.5 -142.5q0 -49 21.5 -91
t59.5 -71q-9 -2 -15 -4q-77 -26 -124 -91t-47 -145v-13q0 -65 85 -82q41 -8 131 -9h2h188q13 0 20 11t1 23q-2 3 -5 6zM869 151q-4 14 -16 21l-11 7v5v5l11 7q12 7 16 20.5t-3 26.5l-24 40q-7 12 -21 16t-26 -3l-11 -7q-5 3 -9 5v14q0 14 -10 24t-25 10h-47q-14 0 -24 -10
t-10 -24v-14q-5 -2 -9 -5l-11 7q-12 7 -26.5 3t-21.5 -16l-23 -40q-7 -13 -3.5 -26.5t16.5 -20.5l11 -7v-5.5v-4.5l-11 -7q-13 -7 -16.5 -21t3.5 -26l24 -41q6 -11 20.5 -15t26.5 3l11 6q4 -2 9 -5v-13q0 -14 10 -24t24 -10h47q15 0 25 10t10 24v13q5 3 9 5l11 -6
q12 -7 26 -3t21 15l24 41q7 12 3 26zM744 98q-5 -2 -5 -7l1 -30l-46 -1v31q0 5 -4 7l-11 5q-7 4 -13 7l-10 8q-2 1 -5 1q-2 0 -3 -1l-26 -16l-24 39l27 16q4 2 4 7l-1 13v7v7l1 13q0 5 -4 7l-26 14l22 40l27 -15q4 -3 8 0l10 7q6 4 13 8l11 5q5 2 5 7l-1 30l45 1v-31
q0 -5 5 -7l11 -5q7 -4 13 -8l10 -7q4 -3 8 0l26 16l23 -40l-26 -15q-4 -2 -4 -7l1 -13v-7v-7l-1 -13q0 -5 4 -7l26 -14l-22 -40l-27 15q-4 2 -8 0l-10 -8q-6 -3 -13 -7zM775 184q0 24 -17 41t-41 17t-41 -17t-17 -41t17 -41t41 -17t41 17t17 41zM717 161q-9 0 -16 7t-7 16
t7 15.5t16 6.5t15.5 -6.5t6.5 -15.5t-6.5 -16t-15.5 -7z" />
    <glyph glyph-name="fuwu1" unicode="&#xe628;" 
d="M307 704q-39 -8 -73 -42t-42 -72q-16 -74 30 -130.5t119 -56.5h153v6v32v121h-1q-2 70 -58 114t-128 28zM456 441h-115q-48 0 -81.5 34t-33.5 82q1 46 34 79.5t79 33.5q48 1 82.5 -33t34.5 -81v-115zM833 590q-9 38 -42.5 72t-72.5 42q-72 16 -128 -28t-59 -114v0v-121
v-32v-6h153q72 0 118.5 56.5t30.5 130.5zM569 556q0 47 34 81t82 33q47 0 80 -33.5t33 -79.5q1 -48 -32.5 -82t-81.5 -34h-115v115zM192 178q8 -39 42 -72.5t73 -42.5q72 -15 128 29t58 114h1v121v31v7h-153q-73 0 -119 -56.5t-30 -130.5zM456 212q0 -48 -34.5 -81.5
t-82.5 -32.5q-46 0 -79 33t-34 80q0 48 33.5 82t81.5 34h115v-115zM684 365h-153v-7v-31v-121v0q3 -70 59 -114t128 -29q39 9 72.5 42.5t42.5 72.5q16 74 -30.5 130.5t-118.5 56.5zM798 211q0 -47 -33 -80t-80 -33q-48 -1 -82 32.5t-34 81.5v115h115q48 0 81.5 -34t32.5 -82
z" />
    <glyph glyph-name="dianshangwangzhankaifa" unicode="&#xe630;" 
d="M493 97h35v-131h-35v131zM60 177v65h896v-22t0.5 -19.5t0.5 -15.5t-1 -12.5t-2.5 -8.5t-5 -5.5t-7.5 -1.5h-861q-9 0 -14.5 4t-5.5 16v0v0zM65 796q0 9 3.5 12t11.5 3h855q21 0 21 -20v-342h60v337q0 44 -29 64.5t-77 20.5h-799q-49 0 -74 -17q-14 -9 -23 -26.5t-9 -36.5
v-614q0 -35 25 -57.5t60 -22.5h343v-131q-19 0 -47.5 1t-39 0.5t-26 -4t-28.5 -12.5v-31q1 -1 6.5 -5t8 -5t8 -3t12.5 -2h367q22 0 31.5 15.5t0 30.5t-31.5 15h-106v131h347q35 0 58 23t23 57v269h-60v-148h-891v498v0zM563 434q-6 4 -38 37t-47 33q-8 0 -16.5 -8t-8.5 -12
q0 -21 45 -66t65 -45q9 0 18.5 5.5t14.5 9.5t15.5 15t10.5 12q4 3 23.5 22t39.5 38.5t41.5 41t35 37.5t13.5 21q0 63 -69 -6l-3 -3q-8 -9 -22.5 -23t-22.5 -23l-48 -42q-4 -4 -14 -15t-17.5 -17.5t-15.5 -11.5v0zM241 705q0 -14 10 -22t26 -8h317q6 0 11.5 1.5t8 3t8 5.5
t7.5 5v8v8.5t-1 7t-3 6.5t-6 3.5t-11 1.5h-352q-1 -2 -5 -6.5t-7 -8t-3 -5.5v0zM241 580q0 -20 7 -30.5t29 -10.5h231q27 0 34 23q6 23 -19 34q-11 4 -25 4q-7 0 -50 0.5t-77.5 1t-69.5 -1.5t-43 -7l-4.5 -3l-4.5 -3z" />
    <glyph glyph-name="ren" unicode="&#xe63e;" 
d="M455 271v37q44 47 58 105q19 9 29 36q8 17 6.5 41t-14.5 40v1q13 113 -37 166q-50 55 -127 57q-76 -2 -126 -57q-50 -53 -38 -166l1 -1v0q-13 -16 -14.5 -40t6.5 -41q10 -27 29 -36q14 -58 57 -105v-20v-16q0 -29 -21 -51t-52.5 -34t-68.5 -25.5t-68.5 -26t-53 -35
t-21.5 -52.5v-34h741v34q0 35 -29.5 60t-71.5 39.5t-84 28.5t-71.5 37.5t-29.5 57.5zM805 287q0 8 1 28q33 36 43 80q15 7 23 27q14 37 -6 62v1q9 86 -28 127q-39 42 -97 43q-58 -1 -97 -43q-37 -41 -28 -127v-0.5v-0.5q-20 -25 -6 -62q8 -20 23 -27q10 -44 43 -80v-15v-12
q0 -25 -18 -41t-51 -29q-17 -7 12 -17q7 -2 25 -8q54 -16 79 -28t45.5 -30.5t29.5 -31.5l9 -12h217v26q0 27 -22.5 46t-55 30t-64.5 21.5t-54.5 28.5t-22.5 44z" />
    <glyph glyph-name="shouyemanyidu" unicode="&#xe639;" 
d="M800 514q-10 1 -36.5 -2.5t-59.5 -8t-49 -5.5q2 10 22 87q3 9 8 26.5t8 27t6.5 27.5t3.5 28.5t-1 30.5q-4 31 -22 52t-40 25.5t-44 -9t-33 -43.5l-41 -104q-4 -6 -11 -18t-9.5 -16t-8.5 -13t-10 -13t-11.5 -12t-15.5 -14.5t-19.5 -15.5t-26.5 -20q-56 -41 -93 -73
q-18 -15 -18 -32v-355q0 -19 15 -30q36 -27 143 -48t182 -21h44t30.5 5t37.5 15q12 6 21 21t11 17q20 19 28.5 45t10 45.5t5.5 23.5q23 24 33 53.5t12 54.5t3 29q10 22 13 34.5t4.5 24.5t5.5 24q22 83 -5 117.5t-93 39.5v0zM175 483q-24 0 -41.5 -17.5t-17.5 -42.5v-363
q0 -24 17.5 -42t41.5 -18t41 18t17 42v363q0 25 -17 42.5t-41 17.5v0v0v0zM175 483z" />
    <glyph glyph-name="fuwu2" unicode="&#xe659;" 
d="M480.5 120q-8.5 31 -24.5 60t-40 53q-48 46 -109 62q-61 17 -122 4l-19 -4l-4 -19q-13 -60 3 -121q17 -61 65 -107q47 -47 107 -67q38 -13 75 -13v0q25 0 49 6l18 4l4 18q7 29 6 61q0 32 -8.5 63zM429 28q-36 -4 -73 9q-47 16 -85 53q-36 35 -49 81q-10 37 -5 73
q37 5 75 -6q46 -12 83 -47q17 -18 29 -40q13 -22 19.5 -46t6.5 -49q0 -14 -1 -28zM862 286l-5 18l-18 4q-32 7 -66 4t-66 -14q-33 -10 -63 -28t-53 -42q-22 -20 -39 -44v93q23 2 46 9q26 7 51 20l3 1q43 27 62 45q29 27 50 60q21 34 32.5 73t11.5 80q0 57 -21 109l-10 23
l-25 -6q-43 -11 -80 -34q-14 -8 -26 -18q-10 33 -28 62q-32 53 -83 87l-17 12l-17 -12q-48 -34 -80 -85q-18 -29 -29 -61q-12 10 -26 18q-37 22 -80 33l-24 6l-10 -23q-23 -54 -23 -111q0 -42 12 -81t32.5 -72.5t50 -60.5t64.5 -45q45 -24 100 -29q1 0 5 -1v-304v0v0v-1h59
v0h4q28 0 43 2q37 3 71 12q35 9 66 25q32 16 57 41q48 47 65 111q17 62 4 124zM538 335h-11h-12h-11t-8.5 0.5l-3.5 0.5v0q-41 4 -77 22q-28 15 -51.5 36.5t-40 48t-25.5 58.5q-10 30 -10 64q0 32 9 63q21 -8 39 -19q29 -17 52 -43l43 -46l8 62q6 49 32 90q20 31 48 55
q29 -24 49 -56q25 -42 31 -91l7 -65l44 48q23 25 53 44q18 11 38 19q8 -30 8 -61q0 -33 -9 -64t-26 -57q-17 -27 -40 -49q-15 -13 -52 -37q-20 -10 -41 -16t-43 -7zM801 177q-13 -48 -50 -85q-18 -17 -42 -29q-26 -13 -54 -21q-29 -8 -61 -10q-13 -2 -38 -2h-1q5 33 15 62.5
t19 41.5q18 28 43 52q19 19 43 33q24 15 50 23q26 9 52 11q16 1 30 0q5 -38 -6 -76z" />
    <glyph glyph-name="diamonds" unicode="&#xe6af;" 
d="M957 552q-1 3 -2 5l-124 212l-97 -217h223v0v0v0zM344 552h331l-166 239l-165 -239v0v0zM475 801h-234q-13 0 -27 -8l100 -224l161 232v0v0v0zM806 795q-12 6 -23 6h-240l162 -232l101 226v0v0v0zM334 518l175 -550h1l174 550h-350v0v0v0zM190 763l-121 -206l-2 -5h218
l-95 211v0v0v0zM63 518l1 -2h1q5 -6 9 -10l383 -486l-158 498h-236v0v0v0zM958 518h-238l-162 -512l394 500q4 5 6 12v0v0v0z" />
    <glyph glyph-name="liucheng1" unicode="&#xe644;" 
d="M741 844l-15 7q-98 42 -205 42q-180 0 -322 -115l48 -55q121 97 274 97q90 0 176 -37l15 -6l-21 -49l134 43l-62 125zM503 -51q-90 0 -176 36l-15 6l21 49l-134 -43l62 -125l22 52l15 -7q98 -42 205 -42q180 0 321 114l-48 57q-119 -97 -273 -97zM114 570l6 15l48 -21
l-42 134l-126 -62l52 -22l-6 -15q-58 -133 -38.5 -273.5t110.5 -252.5l56 48q-78 95 -94 215.5t34 233.5zM972 157l6 14q58 133 38.5 274t-110.5 252l-56 -47q78 -96 94 -216.5t-34 -234.5l-6 -14l-48 20l42 -133l126 62zM307 418v-68h62q5 -23 19 -46l-42 -42l47 -48l43 43
q18 -11 43 -17v-60h67v61q22 5 44 19l45 -44l48 47l-45 45q12 18 19 44h60v67h-62q-4 21 -17 43l44 43l-48 48l-43 -42q-19 12 -46 19v59h-67v-61q-22 -5 -44 -19l-41 43l-48 -48l42 -42q-12 -19 -19 -44h-61zM431 385q0 34 23.5 57t56.5 23t56.5 -23t23.5 -56.5t-23.5 -57
t-56.5 -23.5q-32 0 -55.5 24t-24.5 56z" />
    <glyph glyph-name="peixun" unicode="&#xe705;" 
d="M861 830h-698q-25 0 -43 -17.5t-18 -42.5v-502q0 -25 18 -42.5t43 -17.5h315v-11l-277 -186q-11 -7 -14 -21t5 -25q10 -15 28 -15q10 0 19 5l239 161v-144q0 -13 10 -23t24 -10t24 10t10 23v144l239 -161q9 -5 19 -5q18 0 28 15q8 11 5 25t-14 21l-277 186v11h315
q25 0 43 17.5t18 42.5v502q0 25 -18 42.5t-43 17.5zM854 275h-684v488h684v-488zM284.5 454q30.5 0 52 21t21.5 52q0 13 -6 27l13 9q19 -15 44 -15q13 0 26 5l72 -97q-14 -19 -14 -42q0 -30 21.5 -51.5t51.5 -21.5t51.5 21.5t21.5 51.5q0 21 -11 39l82 101q14 -6 29 -6
q31 0 52.5 21.5t21.5 52t-21.5 51.5t-52 21t-52 -21t-21.5 -52q0 -23 14 -42l-81 -100q-15 8 -33 8q-15 0 -29 -6l-71 95q16 20 16 45q0 31 -21.5 52t-51.5 21t-51.5 -21t-21.5 -52q0 -13 6 -27l-13 -9q-20 15 -44 15q-31 0 -52.5 -21.5t-21.5 -52t21.5 -51.5t52 -21z
M739.5 643q8.5 0 15 -6.5t6.5 -15.5t-6.5 -15t-15.5 -6q-4 0 -9 2q-4 2 -7 6q-5 6 -5 13q0 9 6.5 15.5t15 6.5zM548 426q3 4 7 6q5 4 11 4q7 0 12 -4q4 -3 7 -7q3 -5 3 -11q0 -9 -6.5 -15.5t-15.5 -6.5t-15 6.5t-6 15.5q0 7 3 12zM409 643q9 0 15.5 -6.5t6.5 -15.5
q0 -8 -6 -14q-3 -4 -7 -5q-4 -2 -9 -2q-8 0 -14 5q-3 3 -5 7q-2 5 -2 9q0 9 6 15.5t15 6.5zM285 548q7 0 14 -5q3 -3 5 -7q2 -5 2 -9q0 -9 -6.5 -15.5t-15 -6.5t-15 6.5t-6.5 15.5t6.5 15t15.5 6v0z" />
    <glyph glyph-name="gaoxiao" unicode="&#xe601;" 
d="M512 -102q-99 0 -189 38.5t-155 103.5t-103.5 155t-38.5 189t38.5 189t103.5 155t155 103.5t189 38.5t189 -38.5t155 -103.5t103.5 -155t38.5 -189t-38.5 -189t-103.5 -155t-155 -103.5t-189 -38.5zM512 819q-88 0 -169 -34.5t-139 -92.5t-92.5 -139t-34.5 -169
t34.5 -169t92.5 -139t139 -92.5t169 -34.5t169 34.5t139 92.5t92.5 139t34.5 169t-34.5 169t-92.5 139t-139 92.5t-169 34.5zM492 99q-9 0 -15 6q-10 11 -4 24q21 48 11.5 100t-46.5 89q-49 50 -119 50q-37 0 -70 -15q-13 -6 -23.5 4t-4.5 23q16 35 43 63q62 62 150 62
q4 0 9 -1q20 36 50 66q43 43 99 66q54 21 112 21q35 0 70 -8q12 -3 15 -15q18 -75 -2 -149q-21 -76 -77 -133q-29 -29 -65 -49q4 -93 -62 -159q-27 -27 -62 -43q-5 -2 -9 -2zM319 410q87 0 149 -62q47 -47 59 -113q5 -33 1 -66l5 5q58 58 49 139q-2 14 11 21q37 18 67 48
q46 46 64.5 106t6.5 123q-23 4 -47 4q-106 0 -182 -75q-29 -30 -48 -67q-7 -13 -21 -12q-10 1 -19 1q-70 0 -120 -49l-5 -5q15 2 30 2zM290 130q-11 0 -19 1q-16 2 -18 17q-1 4 -1.5 10.5t0.5 23t5 32t13.5 34.5t24.5 34q37 37 67 37q25 0 52 -27q26 -26 27 -50
q1 -31 -37 -69q-43 -43 -114 -43zM362 277q-13 0 -37 -25q-24 -24 -30 -63q-1 -9 -1 -17q51 1 81 30q24 25 24 38q0 8 -15 22q-14 15 -22 15zM626.5 451q-26.5 0 -45 18.5t-18.5 44.5t18.5 44.5t45 18.5t45 -18.5t18.5 -44.5t-18.5 -44.5t-45 -18.5zM626.5 535
q-8.5 0 -15 -6t-6.5 -15t6.5 -15t15 -6t15 6t6.5 15t-6.5 15t-15 6z" />
    <glyph glyph-name="jizhongzhuyili" unicode="&#xe612;" 
d="M512 512q-53 0 -90.5 -37.5t-37.5 -90.5t37.5 -90.5t90.5 -37.5t90.5 37.5t37.5 90.5t-37.5 90.5t-90.5 37.5zM512 320q-26 0 -45 19t-19 45t19 45t45 19t45 -19t19 -45t-19 -45t-45 -19zM928 416h-1q-12 153 -121 262t-262 121v1q0 13 -9.5 22.5t-22.5 9.5t-22.5 -9.5
t-9.5 -22.5v-1q-153 -12 -262 -121t-121 -262h-1q-13 0 -22.5 -9.5t-9.5 -22.5t9.5 -22.5t22.5 -9.5h1q12 -153 121 -262t262 -121v-1q0 -13 9.5 -22.5t22.5 -9.5t22.5 9.5t9.5 22.5v1q153 12 262 121t121 262h1q13 0 22.5 9.5t9.5 22.5t-9.5 22.5t-22.5 9.5zM544 33v63
q0 13 -9.5 22.5t-22.5 9.5t-22.5 -9.5t-9.5 -22.5v-63q-127 11 -217.5 101.5t-101.5 217.5h63q13 0 22.5 9.5t9.5 22.5t-9.5 22.5t-22.5 9.5h-63q11 127 101.5 217.5t217.5 101.5v-63q0 -13 9.5 -22.5t22.5 -9.5t22.5 9.5t9.5 22.5v63q127 -11 217.5 -101.5t101.5 -217.5
h-63q-13 0 -22.5 -9.5t-9.5 -22.5t9.5 -22.5t22.5 -9.5h63q-11 -127 -101.5 -217.5t-217.5 -101.5z" />
    <glyph glyph-name="xiangmu" unicode="&#xe604;" 
d="M703 406h-263q-6 0 -10.5 -4.5t-4.5 -10.5t4.5 -10t10.5 -4h263q6 0 10.5 4t4.5 10t-4.5 10.5t-10.5 4.5zM703 284h-263q-6 0 -10.5 -4t-4.5 -10t4.5 -10.5t10.5 -4.5h263q6 0 10.5 4.5t4.5 10.5t-4.5 10t-10.5 4zM779 564h-189l-3 10q-27 76 -98 79h-244q-16 0 -27 -11
t-11 -26v-464q0 -15 11 -26t27 -11h534q16 0 27 11t11 26v375q0 16 -11 26.5t-27 10.5zM235 598q0 4 0.5 7.5t1 6t2.5 4.5l3 3t4 2t5.5 1.5t7.5 0.5h8h10h12h156q46 0 65.5 -9t30.5 -28l9 -22h-315v34zM786 189q0 -16 -2.5 -25t-10 -13t-15 -5t-23.5 -1h-446
q-34 0 -42.5 8.5t-8.5 43.5v337h506q8 0 14 -0.5t10 -2t7.5 -2.5t5.5 -5t3 -5.5t1.5 -7.5t0.5 -8v-10v-10v-294zM305 416h47v-47h-47v47zM305 294h47v-48h-47v48z" />
    <glyph glyph-name="liuyan1" unicode="&#xe6a3;" horiz-adv-x="1180" 
d="M336 -55v0q-4 0 -8 1q-36 6 -42 61q-4 28 -1 71v4q0 15 -9.5 30t-23.5 22q-114 54 -181 145q-71 95 -71 207q0 90 47.5 171.5t134.5 139.5q8 6 18 6q13 0 22 -9.5t9 -22.5q0 -17 -14 -26q-73 -49 -113.5 -117t-40.5 -142q0 -91 58 -170q58 -78 158 -125q29 -14 49 -45.5
t20 -63.5v-8q-2 -38 0 -60q47 25 131 96q13 11 34 19.5t38 9.5q119 5 217.5 53t155.5 126t57 168q0 94 -61.5 174t-167.5 126.5t-230 46.5h-2q-37 0 -88.5 -8t-86.5 -19q-5 -1 -10 -1q-13 0 -22 9t-9 22q0 10 6.5 18.5t15.5 11.5q39 13 96 21.5t98 8.5h2q103 0 197.5 -30.5
t168.5 -87.5q73 -56 113 -130q43 -77 43 -162q0 -80 -37.5 -153.5t-107.5 -131.5q-68 -56 -157 -88t-188 -37q-19 -1 -34 -14q-49 -41 -92 -72q-64 -45 -92 -45zM334 8zM955 -128q-22 0 -65 31q-28 20 -59 46q-7 6 -16 6q-30 2 -71.5 11t-69.5 21q-8 3 -13.5 11.5t-5.5 17.5
q0 13 9 22.5t22 9.5q7 0 13 -3q57 -24 119 -27q30 -1 53 -21q31 -26 65 -50v18v6q0 23 14.5 46t35.5 33q61 29 96 77q35 47 35 101q0 62 -45 114q-8 9 -8 20q0 13 9 22.5t22 9.5q15 0 24 -11q61 -70 61 -155q0 -75 -47 -139q-45 -60 -120 -96q-14 -7 -14 -22v-2
q1 -29 -1 -47q-5 -44 -36 -49q-4 -1 -7 -1z" />
    <glyph glyph-name="shipinhuizhen" unicode="&#xe60a;" 
d="M837 451h55q0 118 -80 201t-194 84v-57q91 0 155 -66.5t64 -161.5zM727 451h55q0 71 -48 121t-116 50v-57q45 0 77 -33t32 -81zM618 510v-59h57q0 25 -16.5 42t-40.5 17zM228 414q1 -5 4 -14t13 -31t22.5 -38t33.5 -28t44 -9q23 -3 44 8.5t33.5 29t22 37t13.5 32t4 13.5
q17 22 19 41t-4 27l-7 8q3 49 -9 84.5t-31 50.5t-38 23.5t-33 8.5h-14q-3 1 -8 0.5t-18.5 -3t-26 -7.5t-27.5 -17.5t-25 -29.5t-16 -45.5t-4 -64.5q-4 0 -9 -13q-11 -28 17 -63zM466 270h-226l-115 -61q-21 -5 -61 -174h562q-29 146 -49 174zM921 86l2 293q-1 2 -1.5 5.5
t-4.5 12t-9.5 15.5t-17.5 13t-27 7h-355q-6 -17 -15 -26h370q3 0 8.5 -1t14.5 -9t9 -22v-262h-259l18 -77h308v34zM606 289q2 -5 4.5 -12.5t13.5 -19.5t24 -10q13 -2 23.5 8.5t13.5 22.5l4 11q6 8 7 14.5t-2 9.5l-2 3q1 17 -3 29.5t-11 18t-13.5 8.5t-11.5 3h-5h-5.5
t-11.5 -3t-14 -8.5t-10 -18t-3 -29.5q-11 -10 2 -27zM744 145q-11 54 -18 65l-41 22h-83l-9 -4l2 -2q26 -29 31 -80v-1h118z" />
    <glyph glyph-name="hzk-jx" unicode="&#xe61a;" 
d="M956 258q8 -7 8 -17t-8 -17l-56 -57q-7 -7 -17.5 -7t-17.5 7l-56 57q-7 7 -7 17t7 17.5t17.5 7.5t17.5 -8l39 -39l22 23l-80 78l-257 -258l1 -77h79l160 162q7 7 17.5 7t17.5 -7.5t7 -17.5t-7 -17l-169 -168q-7 -8 -17 -8h-112q-10 0 -17.5 7.5t-7.5 17.5v112q0 10 7 17
l282 281q7 8 17 8t18 -8zM220 226q-12 0 -20.5 -8.5t-8.5 -20.5t8.5 -20.5t20.5 -8.5h261l58 58h-319zM823 513v67q0 2 -1 7q-1 3 -2 5q0 1 -2 4l-3 4l-2 1q-1 2 -4 3q-2 2 -5 3q-2 1 -5 1q-3 1 -5 1h-173q-12 0 -20.5 -8.5t-8.5 -20.5t8.5 -20.5t20.5 -8.5h107l-194 -217
l-173 160l-163 -182q-8 -9 -7.5 -21t9.5 -20q8 -7 20 -7q13 0 21 9l124 138l172 -159l228 252v-49zM121 38v701q0 15 10.5 25t24.5 10h701q15 0 25 -10t10 -25v-244l58 -58v302q0 39 -27 66t-66 27h-701q-38 0 -65.5 -27t-27.5 -66v-701q0 -39 27.5 -66t65.5 -27h209v58
h-209q-14 0 -24.5 10t-10.5 25z" />
    <glyph glyph-name="rencaipingjia" unicode="&#xe621;" 
d="M873 246q23 43 23 91q0 79 -56.5 135.5t-136 56.5t-136 -56.5t-56.5 -135.5q0 -44 19 -84l-138 -276l134 15l68 -116l108 215l123 -214l61 119l135 -7zM831 193l78 -135l-60 3l-27 -53l-81 140q51 10 90 45zM559 59l-59 -6l72 143q38 -35 89 -47l-71 -141zM833 336.5
q0 -53.5 -38 -91.5t-91.5 -38t-91.5 38t-38 91.5t38 91.5t91.5 38t91.5 -38t38 -91.5zM81 -16v809q0 12 9 21t21 9h779q12 0 21 -9t9 -21v-575h63v575q0 38 -27.5 65.5t-65.5 27.5h-779q-38 0 -65.5 -27.5t-27.5 -65.5v-809q0 -38 27.5 -65.5t65.5 -27.5h256v63h-256
q-12 0 -21 9t-9 21zM836 657.5q0 12.5 -9 22t-22 9.5h-620q-13 0 -22 -9.5t-9 -22t9 -21.5t22 -9h620q13 0 22 9t9 21.5zM487 494q0 13 -9 22t-22 9h-271q-13 0 -22 -9t-9 -22t9 -22t22 -9h271q13 0 22 9t9 22zM185 360q-13 0 -22 -9t-9 -22t9 -22t22 -9h231q13 0 22 9t9 22
t-9 22t-22 9h-231z" />
    <glyph glyph-name="shuju" unicode="&#xe60d;" horiz-adv-x="1029" 
d="M140 -72q-55 87 -85 169t-34 144.5t5.5 118t28 93.5t38 66t33 41t14.5 13l351 -299l-13 -13.5t-42 -43t-67.5 -68.5t-100 -98t-128.5 -123zM581 877q-5 1 -15 2t-41 1t-62 -3t-74.5 -14t-83 -29.5t-83 -51t-78.5 -76.5q74 -63 183 -160.5t181.5 -163l72.5 -65.5v560z
M638 744v-431l-332 -332q116 -95 275 -95q89 0 170 34.5t139.5 92t93 137.5t34.5 167q0 108 -50.5 201t-137 152.5t-192.5 73.5z" />
    <glyph glyph-name="shujurongheguanli" unicode="&#xe61c;" 
d="M64 159v37v519q0 47 18.5 66t66.5 19h723q50 0 68.5 -18.5t18.5 -67.5v-516v-38q24 0 46 -1q5 0 8.5 -1.5t5.5 -3.5t3 -4.5t1 -6.5v-8.5v-9.5q2 -62 0 -96q-2 -25 -18.5 -41t-42.5 -19q-5 -1 -28 -1h-846q-51 0 -69.5 18.5t-18.5 69.5v51v6q0 31 4.5 38.5t25.5 7.5h34z
M897 160v32v493q0 32 -10 42t-43 10h-332.5h-332.5q-33 0 -42.5 -10t-9.5 -43v-524h770zM959 95h-894q-4 -41 6 -52.5t47 -11.5h787q38 0 48 11.5t6 52.5zM594 474h73q19 0 27.5 -8.5t8.5 -27.5v-211h-383v246v18v29t3 18.5t5.5 12.5t13.5 5t19.5 3h31.5h12h25v73
q0 21 9.5 30.5t31.5 9.5h80q23 0 33 -9.5t9 -32.5q0 -23 1 -147v-9zM537 281v333h-50v-333h50zM427 281v223h-52v-223h52zM595 282h56v134h-56v-134z" />
    <glyph glyph-name="icon-test" unicode="&#xe600;" 
d="M684 184l8 -19q96 40 155.5 128t59.5 195q0 96 -47 176.5t-128 127.5t-176 47q-124 0 -219.5 -77t-122.5 -195l20 -5l-19 9l-104 -211q-5 -10 1 -20t17 -10h90v-158v-2q0 -3 1.5 -9t7.5 -18.5t15 -22.5t26.5 -18t40.5 -8q14 0 30 2q41 8 58 12q8 1 11 2q2 0 3 1h2
q2 1 3 2q1 0 3 1.5t4 5t3 11.5q-2 10 -6.5 14.5t-7.5 5l-3 0.5h-3h-5v0q-8 -1 -13 -7t-5 -13v-166q0 -8 6 -14t15 -6h275q8 0 14 6t7 14l4 218l-21 1l8 -19l-8 19h-20l-4 -198h-235v145h-20l3 -21l-1 7v-7h1l-1 7v-7v20l-4 -20h4v20l-4 -20l4 21h-21q2 -11 6.5 -15.5t7.5 -5
l3 -0.5l4 21h-21h21l-11 17l-2 -1t-4.5 -5t-3.5 -11h21l-11 17l9 -15l-4 17v0q-1 0 -5 -2l9 -15l-4 17q-6 -1 -69 -13q-12 -2 -22 -2q-13 0 -23.5 4t-15 9.5t-7 11.5t-3.5 10l-1 4l-21 -2h21v179q0 8 -6 14t-15 6h-76l89 182l2 4q24 105 108.5 173t193.5 68
q128 0 218.5 -90.5t91.5 -219.5q0 -95 -52.5 -172t-137.5 -113l-12 -19h20zM611 709l-15 14l-247 -248q-6 -6 -6 -14q0 -4 1 -8q6 -13 19 -13h114l-24 -169q-2 -15 11 -21q5 -2 9 -2q9 0 15 6l234 248q10 10 4.5 22.5t-19.5 12.5h-100l25 169v3q0 12 -12 18q-4 2 -9 2
q-8 0 -15 -6l15 -14l-20 3l-28 -193v-3q0 -8 5 -14q6 -7 16 -7h76l-157 -165l18 128q2 9 -4.5 16t-15.5 7h-88l213 213l-15 15l-20 3z" />
    <glyph glyph-name="flow" unicode="&#xe693;" 
d="M205 350h-103q-15 0 -24.5 9.5t-9.5 24.5t9.5 24.5t24.5 9.5h103q15 0 24.5 -9.5t9.5 -24.5t-9.5 -24.5t-24.5 -9.5zM922 350h-103q-15 0 -24.5 9.5t-9.5 24.5t9.5 24.5t24.5 9.5h103q15 0 24.5 -9.5t9.5 -24.5t-9.5 -24.5t-24.5 -9.5zM68 384v307q0 16 9.5 25t25 9
t25 -9t9.5 -25v-307q0 -15 -9.5 -24.5t-25 -9.5t-25 9.5t-9.5 24.5zM887 77v307q0 15 9.5 24.5t25 9.5t25 -9.5t9.5 -24.5v-307q0 -16 -9.5 -25t-25 -9t-25 9t-9.5 25zM922 43h-103q-15 0 -24.5 9t-9.5 24.5t9.5 25t24.5 9.5h103q15 0 24.5 -9.5t9.5 -25t-9.5 -24.5
t-24.5 -9zM205 657h-103q-15 0 -24.5 9.5t-9.5 25t9.5 24.5t24.5 9h103q15 0 24.5 -9t9.5 -24.5t-9.5 -25t-24.5 -9.5zM836 142l-78 -55q-7 -7 -7 -10.5t7 -9.5l78 -55q17 -11 17 10v116q0 6 -4.5 7t-12.5 -3zM188 756l78 -55q7 -6 7 -9.5t-7 -10.5l-78 -55
q-8 -5 -12.5 -2.5t-4.5 13.5v116q0 5 4.5 6.5t12.5 -3.5zM512 521q7 0 14 -4l211 -109q16 -8 16 -24t-16 -24l-211 -109q-4 -4 -14 -4q-7 0 -14 4l-211 109q-16 7 -16 24t16 24l211 109q7 4 14 4zM683 179h-342q-28 0 -48 -20t-20 -48v-68q0 -28 20 -48.5t48 -20.5h342
q28 0 48 20.5t20 48.5v68q0 28 -20 48t-48 20zM614.5 43q-15.5 0 -25 9t-9.5 24.5t9.5 25t25 9.5t25 -9.5t9.5 -25t-9.5 -24.5t-25 -9zM273 725v-68q0 -28 20 -48t48 -20h342q28 0 48 20t20 48v68q0 28 -20 48.5t-48 20.5h-342q-28 0 -48 -20.5t-20 -48.5zM375 691.5
q0 15.5 9.5 24.5t25 9t25 -9t9.5 -24.5t-9.5 -25t-25 -9.5t-25 9.5t-9.5 25z" />
    <glyph glyph-name="linepatrol-result" unicode="&#xe647;" 
d="M803 377v454h-729v-851h503q63 -49 141 -49q96 0 163.5 68t67.5 163q0 72 -40.5 130.5t-105.5 84.5zM366 685h316v-73h-316v73zM366 515h316v-73h-316v73zM293 272h-73v73h73v-73zM293 442h-73v73h73v-73zM293 612h-73v73h73v-73zM366 272v73h211q-39 -31 -62 -73h-149z
M718 -20q-75 0 -128.5 53.5t-53.5 129t53.5 129t128.5 53.5q85 0 140 -65l-29 -31l-123 -147l-76 87q-21 20 -38 3q-7 -7 -7 -17.5t7 -17.5l115 -115l177 195q17 -36 17 -75q0 -75 -53.5 -128.5t-129.5 -53.5v0z" />
    <glyph glyph-name="computer" unicode="&#xe6bc;" 
d="M931 237h-844v467q0 25 18 42.5t43 17.5h723q25 0 42.5 -17.5t17.5 -42.5v-467v0zM931 224h-844q-5 0 -9 3.5t-4 9.5v467q0 30 22 51.5t52 21.5h723q30 0 51.5 -21.5t21.5 -51.5v-467q0 -6 -3.5 -9.5t-9.5 -3.5zM100 250h818v454q0 19 -14 33t-33 14h-723q-20 0 -34 -14
t-14 -33v-454zM871 134h-723q-25 0 -43 17.5t-18 42.5v50h844v-50q0 -25 -17.5 -42.5t-42.5 -17.5zM871 121h-723q-30 0 -52 21.5t-22 51.5v64h870v-64q0 -30 -21.5 -51.5t-51.5 -21.5zM100 231v-37q0 -19 14 -33t34 -14h723q19 0 33 14t14 33v37h-818zM483 196
q0 -11 7.5 -19t18.5 -8t19 8t8 19t-8 18.5t-19 7.5t-18.5 -7.5t-7.5 -18.5zM243 542.5q0 -42.5 30 -72.5t72.5 -30t72.5 30t30 72.5t-30 72.5t-72.5 30t-72.5 -30t-30 -72.5zM345.5 427q-47.5 0 -81.5 34t-34 81.5t34 81.5t81.5 34t81.5 -34t34 -81.5t-34 -81.5t-81.5 -34z
M345.5 632q-37.5 0 -63.5 -26t-26 -63t26.5 -63.5t63 -26.5t63 26.5t26.5 63.5t-26 63t-63.5 26zM317 543v0q0 -12 8.5 -20.5t20 -8.5t20 8.5t8.5 20.5v0v0q0 11 -8.5 19.5t-20 8.5t-20 -8.5t-8.5 -19.5v0zM571 542.5q0 -42.5 30 -72.5t72.5 -30t72.5 30t30 72.5t-30 72.5
t-72.5 30t-72.5 -30t-30 -72.5zM673 427q-48 0 -81.5 34t-33.5 81.5t33.5 81.5t81.5 34t82 -34t34 -81.5t-34 -81.5t-82 -34zM673 632q-37 0 -63 -26t-26 -63t26 -63.5t63 -26.5t63.5 26.5t26.5 63.5t-26.5 63t-63.5 26zM645 543v0q0 -12 8 -20.5t20 -8.5t20.5 8.5t8.5 20.5
v0v0q0 11 -8.5 19.5t-20.5 8.5t-20 -8.5t-8 -19.5v0zM561 430q0 -21 -15 -36t-36.5 -15t-36.5 15t-15 36h103zM509.5 366q-26.5 0 -45.5 19t-19 45q0 6 3.5 9.5t9 3.5t9.5 -3.5t4 -9.5q0 -16 11 -27t27 -11t27.5 11t11.5 27q0 6 4 9.5t9 3.5t9 -3.5t4 -9.5q0 -26 -19 -45
t-45.5 -19zM424 134h171v-90h-171v90zM595 31h-171q-6 0 -9.5 4t-3.5 9v90q0 5 3.5 9t9.5 4h171q5 0 9 -4t4 -9v-90q0 -5 -4 -9t-9 -4zM437 57h145v64h-145v-64zM667 -3h-316q-14 0 -24 10t-10 24t10 24.5t24 10.5h316q14 0 24 -10.5t10 -24.5t-10 -24t-24 -10zM667 -16
h-316q-19 0 -33 14t-14 33.5t14 33t33 13.5h316q20 0 33.5 -13.5t13.5 -33t-13.5 -33.5t-33.5 -14zM351 52q-8 0 -14.5 -6t-6.5 -15t6.5 -15t14.5 -6h316q9 0 15 6t6 15t-6 15t-15 6h-316z" />
    <glyph glyph-name="beijingtiaochaicon" unicode="&#xe68e;" 
d="M689.5 38q-96.5 0 -164.5 68t-68 164.5t68 165t164.5 68.5t165 -68.5t68.5 -165t-68.5 -164.5t-165 -68zM689.5 458q-77.5 0 -132.5 -55t-55 -132.5t55 -132.5t132.5 -55t132.5 55t55 132.5t-55 132.5t-132.5 55zM930 -38v0q-9 0 -16 7l-112 113q-7 6 -7 15.5t7 16
t16 6.5t16 -6l112 -113q7 -6 7 -15.5t-6.5 -16.5t-16.5 -7v0zM421 16h-263q-36 0 -61.5 25.5t-25.5 61.5v616q0 36 25.5 61.5t61.5 25.5h521q36 0 61.5 -25.5t25.5 -61.5v-90q0 -9 -6.5 -16t-16 -7t-16 7t-6.5 16v90q0 17 -12 29t-30 12h-521q-17 0 -29.5 -12t-12.5 -29
v-616q0 -17 12.5 -29.5t29.5 -12.5h263q10 0 16.5 -6.5t6.5 -16t-6.5 -16t-16.5 -6.5zM347 222q-1 2 -6 3l-32 5l-16 31q-1 2 -5 2t-6 -3l-15 -30l-34 -5q-4 0 -5 -4q-1 -2 2 -5l24 -23l-3 -35q0 -3 3 -6q2 -2 7 -1l29 16l32 -17v0q1 0 2 1h2q2 3 2 6l-6 33l24 22q1 3 1 10z
M310 196q-1 -1 -1 -5l3 -27l-22 15l-3 1l-24 -13l3 25v4l-20 19l27 3q2 0 4 3l11 24l12 -24q1 -1 5 -3l27 -3zM615 625h-417q-6 0 -10.5 6t-4.5 14.5t4.5 14.5t10.5 6h417q6 0 10.5 -6t4.5 -14.5t-4.5 -14.5t-10.5 -6zM429 493h-231q-6 0 -10.5 5.5t-4.5 13t4.5 12.5t10.5 5
h231q6 0 10.5 -5t4.5 -12.5t-4.5 -13t-10.5 -5.5zM348 375h-150q-6 0 -10.5 5t-4.5 12.5t4.5 13t10.5 5.5h150q6 0 10.5 -5.5t4.5 -13t-4.5 -12.5t-10.5 -5zM371 159q-12 -23 -34 -36.5t-49 -13.5q-38 0 -65.5 27t-27.5 66t27.5 66.5t65.5 27.5q34 0 60 -23v4v4v5.5t0.5 6
t0.5 5.5q-28 17 -61 17q-46 0 -79 -33t-33 -80t32.5 -80t79.5 -33q59 0 92 47q-5 11 -9 23z" />
    <glyph glyph-name="security" unicode="&#xe692;" 
d="M916 696q-2 20 -21 26l-362 106q-22 8 -42 0l-363 -106q-18 -6 -21 -26q-2 -16 -4 -50.5t3 -117.5t22 -157q32 -142 111 -247q97 -130 257 -185q16 -6 32 0q159 55 257 185q79 105 113 254q17 74 21 156t2 112.5t-5 49.5zM845 397q-35 -151 -121.5 -258.5t-211.5 -151.5
q-125 44 -211.5 152t-121.5 258q-34 148 -26 256l359 128l358 -128q9 -107 -25 -256zM661 515l-184 -190l-89 95q-10 10 -23.5 10t-23 -10t-9.5 -24t10 -24l112 -119q9 -10 23 -10q13 0 22 10l207 213q10 10 10 24t-9 24.5t-22.5 10.5t-23.5 -10z" />
    <glyph glyph-name="dashiji2" unicode="&#xe688;" 
d="M112 804v-840q0 -12 8.5 -21t21.5 -9h86v900h-86q-12 0 -21 -8t-9 -22zM882 834h-86v-504l-86 112h-56l-86 -112v504h-284v-896h598q12 0 21 8t9 22v836q0 14 -9 22t-21 8z" />
    <glyph glyph-name="yingxiaofangan" unicode="&#xe6ac;" 
d="M800.5 426q-8.5 0 -15 -6t-6.5 -14v0v0v-342q0 -17 -12 -28.5t-29 -11.5h-544q-17 0 -29.5 11.5t-12.5 28.5v640q0 17 12.5 28.5t29.5 11.5h333q8 0 14.5 6t6.5 14t-6.5 14t-14.5 6h-333q-34 0 -58.5 -23.5t-24.5 -56.5v-640q0 -33 24.5 -56.5t58.5 -23.5h544
q34 0 58.5 23.5t24.5 56.5v340v2q0 8 -6 14t-14.5 6zM895 766.5q-18 17.5 -44 17.5t-45 -18l-5 -4l-354 -340l-33 -116l121 32l326 312l34 32q18 17 18 42t-18 42.5zM831 677l-317 -304l-41 -10l11 39l317 303l10 -9zM352 370h-84q-8 0 -14 -5.5t-6 -14t6 -14.5t14 -6h84
q9 0 15 6t6 14.5t-6 14t-15 5.5zM240 197q0 -8 6 -14t14 -6h411q9 0 15 6t6 14t-6 14t-15 6h-411q-8 0 -14 -6t-6 -14z" />
    <glyph glyph-name="index-radar-" unicode="&#xe62a;" 
d="M512 432q46 0 79 33t33 79t-33 79t-79 33t-79 -33t-33 -79t33 -79t79 -33zM512 592q19 0 33.5 -14.5t14.5 -33.5t-14.5 -33.5t-33.5 -14.5t-33.5 14.5t-14.5 33.5t14.5 33.5t33.5 14.5zM240 240h-128q-14 0 -23 -9t-9 -23t9 -23t23 -9h128q14 0 23 9t9 23t-9 23t-23 9z
M499 189l13 -7l13 7l2 1q12 6 24.5 12.5t43.5 26t57 40t58 53t54 66.5t37 79.5t15 92.5q0 122 -89.5 210t-214.5 88t-214.5 -88t-89.5 -210q0 -47 15 -92.5t37 -79.5t53.5 -66.5t57 -53t57 -40t44 -26t25.5 -12.5zM512 794q98 0 169 -69t71 -165q0 -48 -21 -94.5t-47.5 -78
t-65.5 -63t-60 -44.5t-46 -27q-21 10 -45 24.5t-61 44.5t-65 62.5t-48.5 79.5t-20.5 96q0 96 71 165t169 69zM848 240h-96q-14 0 -23 -9t-9 -23t9 -23t23 -9h96q14 0 23 -9t9 -23t-9 -23t-23 -9h-448q-41 0 -68.5 -27.5t-27.5 -68.5t27.5 -68.5t68.5 -27.5h192q14 0 23 9
t9 23t-9 23t-23 9h-192q-14 0 -23 9t-9 23t9 23t23 9h448q41 0 68.5 27.5t27.5 68.5t-27.5 68.5t-68.5 27.5z" />
    <glyph glyph-name="ziyuan1" unicode="&#xe62b;" 
d="M905 896h-786q-49 0 -84 -35t-35 -84v-786q0 -49 35 -84t84 -35h786q49 0 84 35t35 84v786q0 49 -35 84t-84 35zM430 187h-52l40 189h-181l-41 -189h-51l83 390h52l-35 -162h182l34 162h52zM864 382q-44 -195 -194 -195h-140l83 390h130q175 0 121 -195zM740 539h-83v0
l-67 -314h83q112 -6 138 165q35 153 -71 149z" />
    <glyph glyph-name="interact" unicode="&#xe60e;" horiz-adv-x="1067" 
d="M996 717v1q0 7 -1 14q-5 30 -30 52t-56 22h-266q-8 0 -16 -2q-30 -6 -50.5 -30.5t-20.5 -56.5v-184v-1q0 -6 1 -13q5 -31 30 -53t57 -22h132h131q23 0 41 10q47 26 48 77v186zM953 536q0 -18 -13.5 -31t-32.5 -13h-65.5h-65.5h-131q-29 0 -41 27q-4 9 -4 19v0
q0 19 -0.5 54.5t-0.5 64.5t1 55v0q0 19 13 32.5t32 13.5h262q19 0 32.5 -13t13.5 -31v-178zM530 231v3q0 8 -1 17q-5 31 -30.5 52t-55.5 21h-133h-135v0q-7 0 -15 -2q-30 -7 -50 -31t-20 -56v-183q0 -37 26 -63t59 -26q135 -1 271 0q34 0 61 28q23 26 23 64v88.5v87.5z
M487 59q0 -32 -27 -45q-9 -4 -20 -4h-260q-20 0 -33.5 13.5t-13.5 33.5v173q1 20 14 33t32 13h132h128q27 1 41 -21q7 -11 7 -28v-168v0zM890 240q-2 -88 -57 -160q-55 -71 -141 -95l5 1q-12 -6 -47 -10q-1 0 -7 -0.5t-9 -0.5q-13 -1 -20 10.5t-1 24.5t24 15q36 4 68 16
q9 1 31.5 16.5t41.5 36.5q13 8 29 34.5t25 58.5t9 59q0 1 -1.5 13.5t-1.5 24t1 26.5t6 28t14 22q3 3 6 1q28 -29 25 -121zM839 280l-47 -56l-4.5 -4.5t-10.5 -6t-15 2.5q-10 6 -13 14.5t0 13.5l2 5l84 101q1 2 4 4.5t12 6.5t18 4q11 -1 19.5 -7t12.5 -12l4 -6l75 -105
q9 -14 -7 -27q-8 -7 -15 -7.5t-10 1.5l-3 3l-58 75h-48v0zM197 523v0q0 37 10 72q22 74 79 127q57 52 134 67q23 4 50 4q7 2 8 -16q0 -29 -27 -34q-38 -5 -63 -15q-60 -24 -97 -74q-1 0 -4.5 -3.5t-8 -11.5t-9 -18t-9 -23t-7.5 -25l-1 2q-5 -12 -6 -51v5v-2v-7q0 -1 1 -12.5
t1 -23.5t-1 -26.5t-6 -28t-13 -21.5q-4 -3 -6 -1q-6 7 -11 15.5t-7.5 19t-4.5 19.5t-2.5 20t-0.5 17.5t0.5 15t0.5 9.5zM247 485l47 56l4.5 4.5t10.5 6t15 -2.5q10 -7 13 -15t0 -13l-3 -5l-83 -101q-1 -2 -4 -4.5t-12 -6.5t-18 -4q-11 1 -20 7t-12 12l-4 6l-75 105
q-9 14 7 27q7 7 14.5 7.5t10.5 -1.5l3 -3l58 -75h48v0z" />
    <glyph glyph-name="recruitmentinfor" unicode="&#xe8d2;" 
d="M323 377q12 -3 22.5 3.5t12.5 18.5q11 54 54 89t100 35t100 -36q44 -36 55 -90q2 -10 10 -16.5t18 -6.5h6q12 3 18.5 13t4.5 22q-15 75 -74 123q-22 18 -51 32q28 31 28 74q0 47 -33.5 80.5t-81 33.5t-81 -33.5t-33.5 -80.5q0 -43 28 -74q-27 -12 -50 -31
q-59 -49 -75 -122q-3 -11 3.5 -21t18.5 -13zM512 694q23 0 39 -16t16 -39t-16 -39t-39 -16t-39 16t-16 39t16 39t39 16zM523 167h-198q-12 0 -20.5 -8.5t-8.5 -20.5t8.5 -20.5t20.5 -8.5h198q12 0 20.5 8.5t8.5 20.5t-8.5 20.5t-20.5 8.5zM326 241h372q13 0 21.5 8.5
t8.5 20.5t-9 20.5t-21 8.5h-372q-13 0 -21.5 -8.5t-8.5 -20.5t8.5 -20.5t21.5 -8.5zM852 896h-680q-40 0 -67.5 -28t-27.5 -67v-834q0 -39 27.5 -67t67.5 -28h538q12 0 21 9l208 211q9 8 9 20v688q-1 40 -28.5 68t-67.5 28zM136 -33v834q0 15 10.5 25.5t25.5 10.5h680
q15 0 25.5 -10.5t10.5 -25.5v-659h-113q-39 0 -67 -28t-28 -67v-117h-508q-15 1 -25.5 11.5t-10.5 25.5zM847 83l-108 -110v74q0 15 10.5 25.5t25.5 10.5h72z" />
    <glyph glyph-name="zhineng" unicode="&#xe616;" 
d="M526 187v0h-17q-160 3 -273 53q-57 26 -87.5 59.5t-30.5 70.5q1 37 31 68.5t86 54.5q109 46 263 46q8 0 17 -1q160 -3 273 -53q57 -25 87.5 -59t30.5 -71q-1 -36 -31 -67.5t-86 -55.5q-109 -45 -263 -45zM498 505q-148 0 -250 -42q-45 -19 -70.5 -43.5t-26.5 -49.5
q0 -26 25.5 -52t73.5 -47q106 -47 259 -50q7 -1 17 -1v0q148 0 250 43q46 19 71 43.5t26 49.5q0 26 -25.5 52t-73.5 47q-106 47 -259 50h-17zM677 20q-67 0 -154 69q-85 68 -157 177q-88 133 -111 254q-24 129 40 171q22 15 52 15q67 0 154 -69q85 -68 157 -177
q88 -133 111 -255q24 -128 -40 -171q-22 -14 -52 -14zM347 673q-20 0 -34 -9q-46 -30 -26 -137q22 -115 106 -243q70 -105 151 -170q78 -61 133 -61q20 0 34 9q46 30 26 137q-22 115 -106 242q-70 105 -151 170q-78 62 -133 62zM366 7q-24 0 -44 11q-67 37 -54 167
q13 123 90 262q41 74 91 134t100 96q6 4 13 3t11 -7t2.5 -12.5t-6.5 -10.5q-100 -70 -182 -218q-73 -134 -86 -250q-11 -109 37 -135t134 41q91 72 165 206q81 148 87 270q0 7 5.5 11.5t12 4.5t11.5 -5.5t4 -11.5q-6 -130 -91 -285q-77 -140 -174 -216q-69 -55 -126 -55z
M685 678zM602 677.5q0 -34.5 24.5 -59t59 -24.5t59 24.5t24.5 59t-24.5 59t-59 24.5t-59 -24.5t-24.5 -59z" />
    <glyph glyph-name="ziyuan" unicode="&#xe694;" horiz-adv-x="1365" 
d="M1365 43q0 -44 -22 -82l-431 482l427 371q11 -17 19 -43.5t8 -46.5v-681h-1zM683 355l593 520q-38 21 -82 21h-1024v0q-44 0 -82 -21zM847 387l-138 -121q-11 -11 -27.5 -11t-28.5 11l-137 121l-434 -489q17 -11 43.5 -18.5t46.5 -7.5h1024q20 0 46.5 7.5t43.5 18.5
l-438 489h-1zM27 814q-11 -17 -19 -43t-8 -46v-682q0 -44 22 -82l431 482zM27 814z" />
  </font>
</defs>
</svg>
